<svg xmlns="http://www.w3.org/2000/svg" xmlns:xlink="http://www.w3.org/1999/xlink" viewBox="0 0 109 98">
  <defs>
    <style>
      .cls-1 {
        fill: #7ed321;
      }

      .cls-2 {
        fill: #fff;
      }

      .cls-3 {
        filter: url(#Combined_Shape);
      }
    </style>
    <filter id="Combined_Shape" x="0" y="0" width="109" height="98" filterUnits="userSpaceOnUse">
      <feOffset dy="2" input="SourceAlpha"/>
      <feGaussianBlur stdDeviation="2" result="blur"/>
      <feFlood flood-opacity="0.102"/>
      <feComposite operator="in" in2="blur"/>
      <feComposite in="SourceGraphic"/>
    </filter>
  </defs>
  <g id="icone--controle-acesso" transform="translate(6 4)">
    <g class="cls-3" transform="matrix(1, 0, 0, 1, -6, -4)">
      <path id="Combined_Shape-2" data-name="Combined Shape" class="cls-1" d="M97,86c-14.483,0-21.764-1.231-31.542-9.47A58.319,58.319,0,0,1,48.5,79.012C21.714,79.012,0,61.325,0,39.506S21.714,0,48.5,0,97,17.688,97,39.506c0,11.442-5.972,21.748-15.514,28.962C85.034,75.275,86.972,79.193,97,86Z" transform="translate(6 4)"/>
    </g>
    <path id="Combined_Shape-3" data-name="Combined Shape" class="cls-2" d="M6.271,42.87l-3.094-.6A4.012,4.012,0,0,1,.542,40.808,3.588,3.588,0,0,1,.1,37.962l.47-2.418c.382-1.968,1.482-2.965,3.271-2.965a6.284,6.284,0,0,1,1.193.124l3.094.6A4.112,4.112,0,0,1,10.8,34.751a3.6,3.6,0,0,1,.427,2.865l-.47,2.418a3.562,3.562,0,0,1-1.487,2.471,3.411,3.411,0,0,1-1.85.484A6.125,6.125,0,0,1,6.271,42.87Zm16.016-7.744a2.519,2.519,0,0,1-.987-1.787l-.274-1.723q-.4-2.547,2.306-2.976l2.223-.352q2.728-.432,3.132,2.115l.274,1.723a2.5,2.5,0,0,1-.4,2.006,2.905,2.905,0,0,1-1.928.973l-2.224.352a4.51,4.51,0,0,1-.706.059A2.451,2.451,0,0,1,22.287,35.125ZM7.186,29.7A3.773,3.773,0,0,1,4.8,28.259,3.84,3.84,0,0,1,4.336,25.5L5.53,5.511a7.976,7.976,0,0,1,1.694-3.13A6.046,6.046,0,0,1,11.786,0a5.552,5.552,0,0,1,1.059.1A5.437,5.437,0,0,1,16.49,2.628a8.935,8.935,0,0,1,1.31,4.6,3.912,3.912,0,0,1,2.917-2.193C24.054,4.5,25.8,8.183,25.9,9.019l.4,14.169a2.4,2.4,0,0,1-2.17,2.912A2.379,2.379,0,0,1,21.183,24L17.122,10.409a2.51,2.51,0,0,1-.023-.591L11.453,26.879c-.47,1.921-1.6,2.894-3.362,2.9A5.818,5.818,0,0,1,7.186,29.7Zm16.943-3.6.173-.024-.355.057C24.008,26.123,24.07,26.112,24.129,26.1Z" transform="translate(32.994 14.003)"/>
  </g>
</svg>
