<svg xmlns="http://www.w3.org/2000/svg" xmlns:xlink="http://www.w3.org/1999/xlink" viewBox="0 0 572.311 561.925">
  <defs>
    <style>
      .cls-1, .cls-2 {
        fill: url(#linear-gradient);
      }

      .cls-17, .cls-2 {
        opacity: 0.3;
      }

      .cls-3 {
        fill: #7ed321;
      }

      .cls-4 {
        fill: #d8d8d8;
      }

      .cls-5 {
        fill: #cae2ff;
      }

      .cls-6 {
        fill: #88d05c;
      }

      .cls-7 {
        fill: #ffdab3;
      }

      .cls-8 {
        fill: rgba(0,0,0,0.1);
      }

      .cls-11, .cls-17, .cls-22, .cls-27, .cls-29, .cls-33, .cls-39, .cls-47, .cls-9 {
        fill: #fff;
      }

      .cls-39, .cls-9 {
        stroke: #4d83eb;
      }

      .cls-11, .cls-21, .cls-22, .cls-27, .cls-28, .cls-29, .cls-34, .cls-35, .cls-39, .cls-51, .cls-57, .cls-59, .cls-9 {
        stroke-miterlimit: 10;
      }

      .cls-9 {
        stroke-width: 4px;
      }

      .cls-10 {
        fill: #eaf3ff;
      }

      .cls-11 {
        stroke: #ebebeb;
      }

      .cls-12 {
        fill: #8b5d3d;
      }

      .cls-13 {
        fill: url(#linear-gradient-3);
      }

      .cls-14 {
        clip-path: url(#clip-path);
      }

      .cls-15 {
        clip-path: url(#clip-path-2);
      }

      .cls-16 {
        clip-path: url(#clip-path-3);
      }

      .cls-18 {
        fill: #c2c2c2;
      }

      .cls-19 {
        clip-path: url(#clip-path-4);
      }

      .cls-20 {
        fill: rgba(155,155,155,0.3);
      }

      .cls-21, .cls-35, .cls-57, .cls-59, .cls-66 {
        fill: none;
      }

      .cls-21 {
        stroke: #a4e064;
        stroke-linecap: round;
        stroke-linejoin: round;
      }

      .cls-21, .cls-57 {
        stroke-width: 2px;
      }

      .cls-22, .cls-29, .cls-35 {
        stroke: #979797;
      }

      .cls-22 {
        stroke-width: 5px;
      }

      .cls-23 {
        clip-path: url(#clip-path-5);
      }

      .cls-24 {
        fill: #8b572a;
      }

      .cls-25, .cls-28 {
        fill: #fbddb3;
      }

      .cls-26 {
        clip-path: url(#clip-path-6);
      }

      .cls-28 {
        stroke: #74ab51;
        stroke-width: 3px;
      }

      .cls-30, .cls-67 {
        fill: #74ab51;
      }

      .cls-31 {
        fill: #ba7510;
      }

      .cls-32 {
        fill: #0f0f0f;
      }

      .cls-34 {
        fill: #db1f20;
      }

      .cls-36 {
        fill: #efefef;
      }

      .cls-36, .cls-47, .cls-54 {
        opacity: 0.2;
      }

      .cls-37 {
        clip-path: url(#clip-path-7);
      }

      .cls-38 {
        clip-path: url(#clip-path-8);
      }

      .cls-39 {
        stroke-width: 7px;
      }

      .cls-40 {
        clip-path: url(#clip-path-9);
      }

      .cls-41 {
        clip-path: url(#clip-path-10);
      }

      .cls-42 {
        clip-path: url(#clip-path-11);
      }

      .cls-43 {
        fill: #d33131;
      }

      .cls-44 {
        fill: #19b0f6;
      }

      .cls-45 {
        fill: #ffb020;
      }

      .cls-46 {
        fill: #4d83eb;
      }

      .cls-48 {
        fill: url(#linear-gradient-6);
      }

      .cls-49 {
        clip-path: url(#clip-path-12);
      }

      .cls-50 {
        clip-path: url(#clip-path-13);
      }

      .cls-51, .cls-52 {
        fill: #fbca9b;
      }

      .cls-51 {
        stroke: #d6d6d6;
      }

      .cls-53 {
        clip-path: url(#clip-path-14);
      }

      .cls-54, .cls-55 {
        fill: #1e1619;
      }

      .cls-56 {
        fill: #ec4d50;
      }

      .cls-57, .cls-59 {
        stroke: red;
      }

      .cls-58 {
        fill: red;
      }

      .cls-60 {
        fill: #4a4a4a;
      }

      .cls-61 {
        fill: #f6f6ee;
      }

      .cls-62 {
        fill: url(#linear-gradient-7);
      }

      .cls-63 {
        clip-path: url(#clip-path-16);
      }

      .cls-64 {
        opacity: 0.1;
        fill: url(#linear-gradient-10);
      }

      .cls-65, .cls-67, .cls-68, .cls-69 {
        stroke: none;
      }

      .cls-68 {
        fill: #ab130e;
      }

      .cls-69 {
        fill: #ebebeb;
      }

      .cls-70 {
        filter: url(#Combined_Shape-3);
      }

      .cls-71 {
        filter: url(#Combined_Shape);
      }
    </style>
    <linearGradient id="linear-gradient" y1="0.5" x2="1" y2="0.5" gradientUnits="objectBoundingBox">
      <stop offset="0" stop-color="#f6faff"/>
      <stop offset="1" stop-color="#cddcf1"/>
    </linearGradient>
    <linearGradient id="linear-gradient-3" x1="0.5" y1="0.027" x2="0.5" y2="1" gradientUnits="objectBoundingBox">
      <stop offset="0" stop-color="#ffebcf"/>
      <stop offset="1" stop-color="#ffdebe"/>
    </linearGradient>
    <clipPath id="clip-path">
      <path id="Path_43" data-name="Path 43" class="cls-1" d="M166.963,60.885c56.359,0,50.529-71.6,120.978-59.508s92.312,63.863,66.562,149.5S489.57,195.867,497.344,320.206s-109.757,124.339-137.5,121.92-84.053-10.16-136.525,14.03S151.9,508.407,86.311,482.281s-89.4-92.891-86-145.626,27.208-62.411,27.208-112.727-29.151-90.956-8.26-131.6S110.6,60.885,166.963,60.885Z" transform="translate(0.17 0.075)"/>
    </clipPath>
    <clipPath id="clip-path-2">
      <path id="Path_43-2" data-name="Path 43" class="cls-2" d="M190.4,69.431c64.27,0,57.621-81.654,137.959-67.861s105.27,72.827,75.9,170.481,154.026,51.31,162.891,193.1S441.99,506.943,410.357,504.184s-95.851-11.586-155.688,16-81.445,59.585-156.242,29.793S-3.519,444.047.36,383.91s31.027-71.172,31.027-128.55S-1.857,151.637,21.968,105.292,126.129,69.431,190.4,69.431Z" transform="translate(532.813 557.417) rotate(180)"/>
    </clipPath>
    <clipPath id="clip-path-3">
      <ellipse id="Oval_2" data-name="Oval 2" class="cls-3" cx="19.181" cy="19.2" rx="19.181" ry="19.2" transform="translate(0 0)"/>
    </clipPath>
    <clipPath id="clip-path-4">
      <path id="Rectangle_3" data-name="Rectangle 3" class="cls-4" d="M0,2A2,2,0,0,1,2,0H57.461a2,2,0,0,1,2,2V137.152a188.261,188.261,0,0,1-27.586,7.28C17.813,146.858,0,147.053,0,147.053Z"/>
    </clipPath>
    <clipPath id="clip-path-5">
      <ellipse id="Oval_23" data-name="Oval 23" class="cls-5" cx="21.099" cy="21.121" rx="21.099" ry="21.121" transform="translate(0 0)"/>
    </clipPath>
    <clipPath id="clip-path-6">
      <path id="Path_12" data-name="Path 12" class="cls-6" d="M26.541,12.441,25.829,23.9S8.089,25.672,8.089,22.364V12.441s-1.517,4.326-2.781,4.326S0,8.115,0,8.115L3.792,6.08,5.308,8.624S6.572,5.316,7.33,3.281s2.781-2.29,5.308-2.8,7.33-.763,9.858,0,4.044,1.527,4.55,2.8S32.608,22.11,32.608,22.11l-2.781.977Z" transform="translate(0 0.027)"/>
    </clipPath>
    <filter id="Combined_Shape" x="297.351" y="220.091" width="112.891" height="106.323" filterUnits="userSpaceOnUse">
      <feOffset dy="2" input="SourceAlpha"/>
      <feGaussianBlur stdDeviation="2" result="blur"/>
      <feFlood flood-opacity="0.102"/>
      <feComposite operator="in" in2="blur"/>
      <feComposite in="SourceGraphic"/>
    </filter>
    <clipPath id="clip-path-7">
      <path id="Path_36" data-name="Path 36" class="cls-7" d="M0,238.77c0,8.735,5.334,19.9,27.155,29.6s48.007,7.28,51.886-4.368,12.85-54.354,24.488-65.516,42.915-25.721,60.372-56.781,43.158-30.089,43.158-50.472-16.972-23.295-16.972-23.295,10.183-17.956,3.879-26.206-17.942-4.368-17.942-4.368h-6.789s17.942-13.1,17.942-21.839S185.723,0,176.025,0s-9.7,5.824-9.7,5.824L92.89,35.409s-4.745-1.4-7.06-.467S51.886,51.928,51.886,51.928s-36.369,46.1-38.308,63.09,1.94,36.883,9.7,59.692S0,230.034,0,238.77Z"/>
    </clipPath>
    <clipPath id="clip-path-8">
      <path id="Combined_Shape-2" data-name="Combined Shape" class="cls-8" d="M26.421,147.321,0,48.717c5.271-2.673,30.926-15.671,33-16.508,2.315-.933,7.06.466,7.06.466L113.5,3.091A4.918,4.918,0,0,1,114.559.368l7.867,29.36c-3.311,2.93-6.018,4.907-6.018,4.907H123.2s.179-.06.5-.149l19.4,72.39c-9.046,6.87-21.917,14.116-32.025,32.1a98.7,98.7,0,0,1-7.589,11.508l-48.894,13.1a22.975,22.975,0,0,1-28.169-16.264Z" transform="translate(52.828 2.733)"/>
    </clipPath>
    <clipPath id="clip-path-9">
      <rect id="Rectangle_24" data-name="Rectangle 24" class="cls-9" width="123.169" height="232.461" rx="23"/>
    </clipPath>
    <clipPath id="clip-path-10">
      <ellipse id="Oval_23-2" data-name="Oval 23" class="cls-5" cx="24.003" cy="24.023" rx="24.003" ry="24.023" transform="translate(0 0)"/>
    </clipPath>
    <clipPath id="clip-path-11">
      <path id="Path_12-2" data-name="Path 12" class="cls-6" d="M30.392,14.217l-.815,13.1s-20.315,2.02-20.315-1.76V14.217s-1.737,4.943-3.184,4.943S0,9.274,0,9.274L4.342,6.948,6.078,9.856s1.447-3.78,2.316-6.106,3.184-2.617,6.078-3.2,8.394-.872,11.288,0,4.631,1.745,5.21,3.2,6.368,21.518,6.368,21.518l-3.184,1.116Z" transform="translate(0 0.031)"/>
    </clipPath>
    <linearGradient id="linear-gradient-6" x1="-0.08" y1="0.403" x2="0.978" y2="0.763" gradientUnits="objectBoundingBox">
      <stop offset="0" stop-color="#ffecd4"/>
      <stop offset="1" stop-color="#ffdeb3"/>
    </linearGradient>
    <clipPath id="clip-path-12">
      <ellipse id="Oval_24" data-name="Oval 24" class="cls-10" cx="21.336" cy="21.353" rx="21.336" ry="21.353" transform="translate(0 0)"/>
    </clipPath>
    <clipPath id="clip-path-13">
      <path id="Path_2" data-name="Path 2" class="cls-11" d="M2.719,3.2C1.252,5.169.763,5.169.029,9.352c-.386,2.2,4.4,5.415,4.4,5.415H23.752l4.891-5.415A38.353,38.353,0,0,0,25.708,3.2C24.982,2.1,19.661-.02,14.336,0,8.9.02,3.46,2.205,2.719,3.2Z" transform="translate(0.267 0.178)"/>
    </clipPath>
    <clipPath id="clip-path-14">
      <ellipse id="Oval_18" data-name="Oval 18" class="cls-12" cx="6.093" cy="3.181" rx="6.093" ry="3.181" transform="translate(12.186 0) rotate(180)"/>
    </clipPath>
    <filter id="Combined_Shape-3" x="74.918" y="138.078" width="55.776" height="54.817" filterUnits="userSpaceOnUse">
      <feOffset dy="4" input="SourceAlpha"/>
      <feGaussianBlur result="blur-2"/>
      <feFlood flood-opacity="0.102"/>
      <feComposite operator="in" in2="blur-2"/>
      <feComposite in="SourceGraphic"/>
    </filter>
    <linearGradient id="linear-gradient-7" x1="-0.076" y1="0.403" x2="0.978" y2="0.763" xlink:href="#linear-gradient-6"/>
    <clipPath id="clip-path-16">
      <path id="Path_38" data-name="Path 38" class="cls-13" d="M.038,85.934c.97,22.809,11.153,67.943,43.643,59.692S64.532,91.758,58.228,80.111s-8.244-15.044-6.3-19.9,8.244-22.324,8.244-22.324,20.367-5.824,22.791-25.236C84.056,3.868,78.628-.439,73.746.035,67.84.609,61.69,7.3,55.319,10.227c-11.638,5.338-17.942,8.735-17.942,8.735A95.63,95.63,0,0,0,22.829,36.918C16.736,46.984-.931,63.125.038,85.934Z" transform="translate(0.447 0.45)"/>
    </clipPath>
    <linearGradient id="linear-gradient-10" x1="1.137" y1="0.802" x2="0.5" gradientUnits="objectBoundingBox">
      <stop offset="0"/>
      <stop offset="1" stop-opacity="0"/>
    </linearGradient>
  </defs>
  <g id="Group_35" data-name="Group 35" transform="translate(24.76 4.508)">
    <g id="Group_34" data-name="Group 34" transform="translate(10)">
      <path id="Path_43-3" data-name="Path 43" class="cls-1" d="M166.963,60.885c56.359,0,50.529-71.6,120.978-59.508s92.312,63.863,66.562,149.5S489.57,195.867,497.344,320.206s-109.757,124.339-137.5,121.92-84.053-10.16-136.525,14.03S151.9,508.407,86.311,482.281s-89.4-92.891-86-145.626,27.208-62.411,27.208-112.727-29.151-90.956-8.26-131.6S110.6,60.885,166.963,60.885Z" transform="translate(0.17 0.075)"/>
      <path id="Path_43-4" data-name="Path 43" class="cls-2" d="M190.4,69.431c64.27,0,57.621-81.654,137.959-67.861s105.27,72.827,75.9,170.481,154.026,51.31,162.891,193.1S441.99,506.943,410.357,504.184s-95.851-11.586-155.688,16-81.445,59.585-156.242,29.793S-3.519,444.047.36,383.91s31.027-71.172,31.027-128.55S-1.857,151.637,21.968,105.292,126.129,69.431,190.4,69.431Z" transform="translate(532.813 557.417) rotate(180)"/>
    </g>
    <g id="Group_30" data-name="Group 30" transform="translate(0 52)">
      <g id="Catraca" transform="translate(305.87 216.216)">
        <g id="Group_4" data-name="Group 4">
          <g id="Group_3" data-name="Group 3">
            <g id="Group_2" data-name="Group 2" transform="translate(86.315 17.28)">
              <ellipse id="Oval_2-2" data-name="Oval 2" class="cls-3" cx="19.181" cy="19.2" rx="19.181" ry="19.2" transform="translate(0 0)"/>
              <g id="Group_2-2" data-name="Group 2" class="cls-16">
                <ellipse id="Oval" class="cls-17" cx="20.925" cy="20.946" rx="20.925" ry="20.946" transform="translate(3.487 3.491)"/>
              </g>
            </g>
            <rect id="Rectangle_4" data-name="Rectangle 4" class="cls-18" width="109.332" height="13.44" rx="2.5" transform="translate(0 48.001)"/>
            <rect id="Rectangle_4-2" data-name="Rectangle 4" class="cls-18" width="109.332" height="13.44" rx="6.72" transform="translate(12.383 110.869) rotate(-45)"/>
            <g id="Group" transform="translate(74.806 26.881)">
              <path id="Rectangle_3-2" data-name="Rectangle 3" class="cls-4" d="M0,2A2,2,0,0,1,2,0H57.461a2,2,0,0,1,2,2V137.152a188.261,188.261,0,0,1-27.586,7.28C17.813,146.858,0,147.053,0,147.053Z"/>
              <g id="Group-2" data-name="Group" class="cls-19">
                <rect id="Rectangle" class="cls-20" width="31.479" height="165.124" transform="translate(31.479)"/>
              </g>
            </g>
            <path id="Path_36-2" data-name="Path 36" class="cls-21" d="M1.918,7.68V0" transform="translate(103.578)"/>
            <path id="Path_36-3" data-name="Path 36" class="cls-21" d="M7.672,7.68,0,0" transform="translate(82.478 7.68)"/>
            <path id="Path_36_Copy" data-name="Path 36 Copy" class="cls-21" d="M0,7.68,7.672,0" transform="translate(124.677 7.68)"/>
          </g>
        </g>
        <g id="Rectangle_18" data-name="Rectangle 18" class="cls-22" transform="translate(141.94 15.36)">
          <rect class="cls-65" width="99.741" height="65.282" rx="8"/>
          <rect class="cls-66" x="2.5" y="2.5" width="94.741" height="60.282" rx="5.5"/>
        </g>
        <g id="Group_19" data-name="Group 19" transform="translate(170.711 26.881)">
          <ellipse id="Oval_23-3" data-name="Oval 23" class="cls-5" cx="21.099" cy="21.121" rx="21.099" ry="21.121" transform="translate(0 0)"/>
          <g id="Group_19-2" data-name="Group 19" class="cls-23">
            <g id="Group_11" data-name="Group 11" transform="translate(3.836 3.84)">
              <rect id="Rectangle_5" data-name="Rectangle 5" class="cls-24" width="21.82" height="17.03" rx="8.515" transform="translate(6.374 29.618)"/>
              <path id="Path_17" data-name="Path 17" class="cls-25" d="M2.743,6.32S4.479,3.34,2.991.856,1.75,3.092,1.75,3.092.758,1.85.262,2.1s.248,1.987.5,2.235S-.866,6.32.51,8.059,2.743,6.32,2.743,6.32Z" transform="translate(0.49 30.111)"/>
              <g id="Group_3-2" data-name="Group 3" transform="translate(0 30.111)">
                <path id="Path_12-3" data-name="Path 12" class="cls-6" d="M26.541,12.441,25.829,23.9S8.089,25.672,8.089,22.364V12.441s-1.517,4.326-2.781,4.326S0,8.115,0,8.115L3.792,6.08,5.308,8.624S6.572,5.316,7.33,3.281s2.781-2.29,5.308-2.8,7.33-.763,9.858,0,4.044,1.527,4.55,2.8S32.608,22.11,32.608,22.11l-2.781.977Z" transform="translate(0 0.027)"/>
                <g id="Group_3-3" data-name="Group 3" class="cls-26">
                  <g id="Rectangle_6" data-name="Rectangle 6" class="cls-27" transform="translate(8.594 6.107)">
                    <path class="cls-65" d="M 18.8863639831543 3.535582065582275 L 17.18858528137207 3.535582065582275 L 4.548034667095635e-06 3.535582065582275 L -1.697775483131409 3.535582065582275 L -1.488565444946289 1.850742101669312 L -1.235795497894287 -0.1848378926515579 L -1.072485446929932 -1.499997854232788 L 0.2527745366096497 -1.499997854232788 L 16.93581390380859 -1.499997854232788 L 18.26107406616211 -1.499997854232788 L 18.42438507080078 -0.1848378926515579 L 18.67715454101563 1.850742101669312 L 18.8863639831543 3.535582065582275 Z"/>
                    <path class="cls-67" d="M 17.18858528137207 2.035582065582275 L 16.93581390380859 2.105674639096833e-06 L 0.2527745366096497 2.105674639096833e-06 L 4.548034667095635e-06 2.035582065582275 L 17.18858528137207 2.035582065582275 M 20.58415412902832 5.035582065582275 L 17.18858528137207 5.035582065582275 L 4.548034667095635e-06 5.035582065582275 L -3.395565509796143 5.035582065582275 L -2.977125406265259 1.665892124176025 L -2.724355459213257 -0.3696878850460052 L -2.397735357284546 -2.999997854232788 L 0.2527745366096497 -2.999997854232788 L 16.93581390380859 -2.999997854232788 L 19.58632469177246 -2.999997854232788 L 19.91294479370117 -0.3696878850460052 L 20.16571426391602 1.665892124176025 L 20.58415412902832 5.035582065582275 Z"/>
                  </g>
                  <g id="Rectangle_6-2" data-name="Rectangle 6" class="cls-27" transform="translate(8.847 10.432)">
                    <path class="cls-65" d="M 18.76316833496094 4.044479846954346 L 16.93581771850586 4.044479846954346 L -2.094421461151796e-06 4.044479846954346 L -1.827352046966553 4.044479846954346 L -1.471242070198059 2.252170085906982 L -0.9656921029090881 -0.29230996966362 L -0.7257421016693115 -1.5 L 0.5055478811264038 -1.5 L 16.43026733398438 -1.5 L 17.66155815124512 -1.5 L 17.90150833129883 -0.29230996966362 L 18.40705871582031 2.252170085906982 L 18.76316833496094 4.044479846954346 Z"/>
                    <path class="cls-67" d="M 16.93581771850586 2.544480085372925 L 16.43026733398438 4.268646236482709e-08 L 0.5055478811264038 4.268646236482709e-08 L -2.094421461151796e-06 2.544480085372925 L 16.93581771850586 2.544480085372925 M 20.59051704406738 5.544479846954346 L 16.93581771850586 5.544479846954346 L -2.094421461151796e-06 5.544479846954346 L -3.654702186584473 5.544479846954346 L -2.942481994628906 1.959850072860718 L -2.43693208694458 -0.5846299529075623 L -1.957042098045349 -3 L 0.5055478811264038 -3 L 16.43026733398438 -3 L 18.89285850524902 -3 L 19.37274742126465 -0.5846299529075623 L 19.87829780578613 1.959850072860718 L 20.59051704406738 5.544479846954346 Z"/>
                  </g>
                  <g id="Oval_14" data-name="Oval 14" class="cls-28" transform="translate(12.891 -1.781)">
                    <ellipse class="cls-65" cx="4.424" cy="2.163" rx="4.424" ry="2.163"/>
                    <ellipse class="cls-66" cx="4.424" cy="2.163" rx="5.924" ry="3.663"/>
                  </g>
                  <path id="Path_13" data-name="Path 13" class="cls-24" d="M3.539,3.246S4.55,7.826,1.517,15.2s0,2.29,0,2.29,5.561-8.4,3.792-14.5S3.539,3.246,3.539,3.246Z" transform="translate(6.572 -2.228)"/>
                  <path id="Path_14" data-name="Path 14" class="cls-29" d="M0,0V2.8L.758,4.071l1.517.254,1.769-.254L4.3,2.8V0Z" transform="translate(19.969 7.633)"/>
                  <path id="Path_8" data-name="Path 8" class="cls-30" d="M2.658,5.478C1.042,5.478.519,4.958.119,4A1.538,1.538,0,0,1,0,3.407V1.018C0,.973,0,.929,0,.886,0,.555,0,.27.146.119A.485.485,0,0,1,.507,0h4.3a.484.484,0,0,1,.361.119c.15.151.148.435.145.764,0,.044,0,.089,0,.135v2.39A1.533,1.533,0,0,1,5.2,4C4.8,4.959,4.272,5.478,2.658,5.478ZM1.013,1.018v2.39a.513.513,0,0,0,.04.2l.034.084c.216.528.42,1.027,1.571,1.027s1.355-.5,1.572-1.025L4.265,3.6a.513.513,0,0,0,.04-.2V1.018Z" transform="translate(19.462 6.87)"/>
                  <path id="Path_13-2" data-name="Path 13" class="cls-24" d="M-2.339,3.246A19.617,19.617,0,0,0-.491,15.2a6.056,6.056,0,0,1,.253,4.071c-.114.233-.506-2.036-.506-2.036S-5.878,9.1-4.108,2.991-2.339,3.246-2.339,3.246Z" transform="translate(27.032 -2.228)"/>
                </g>
              </g>
              <path id="Oval_15" data-name="Oval 15" class="cls-25" d="M10.91,17.03c6.025,0,10.91-3.813,10.91-8.517,0-2.915-1.876-5.489-4.738-7.024-.858-.46,2.99,4.1,1.979,3.846-.594-.15-4.311-.348-6.27-1.78-1.53-1.118-1.493-2.492-2.006-2.492-.325,0-.946-1.27-.84-1.034,4.1,9.12-3.024.469-4.325,1.034C2.268,2.517,0,5.308,0,8.513,0,13.217,4.885,17.03,10.91,17.03Z" transform="translate(6.129 12.588)"/>
              <rect id="Rectangle_7" data-name="Rectangle 7" class="cls-25" width="3.432" height="2.715" transform="translate(15.201 28.63)"/>
              <ellipse id="Oval_15-2" data-name="Oval 15" class="cls-31" cx="12.136" cy="13.451" rx="12.136" ry="13.451" transform="translate(6.129 0)"/>
              <ellipse id="Oval_11" data-name="Oval 11" class="cls-25" cx="3.555" cy="2.468" rx="3.555" ry="2.468" transform="matrix(0.883, 0.469, -0.469, 0.883, 5.252, 19.106)"/>
              <ellipse id="Oval_11-2" data-name="Oval 11" class="cls-25" cx="3.555" cy="2.468" rx="3.555" ry="2.468" transform="matrix(0.883, -0.469, 0.469, 0.883, 22.549, 22.443)"/>
              <path id="Oval_15-3" data-name="Oval 15" class="cls-31" d="M11.523,25.175c6.364,0,11.523-5.692,11.523-12.713S16.747,0,10.383,0,0,5.44,0,12.462,5.159,25.175,11.523,25.175Z" transform="translate(3.432 1.481)"/>
              <path id="Path_15" data-name="Path 15" class="cls-25" d="M.672,15.393s-1.008-4.618-.5-6.927A20.254,20.254,0,0,1,1.932,3.848S1.68,5.9,2.436,6.67.924,6.67,4.956,0C4.956,4.618,10,6.157,10,6.157a19.015,19.015,0,0,1-1.26-2.566,9.951,9.951,0,0,1-.252-2.309A26.129,26.129,0,0,0,12.516,5.9a20.58,20.58,0,0,0,5.292,2.052,30.413,30.413,0,0,1-1.764-2.822,4.61,4.61,0,0,1-.252-1.8,16.117,16.117,0,0,0,3.276,3.592,12.672,12.672,0,0,0,1.764.77c-.376.7.252,4.361.252,4.361v.257l-.756,2.309-6.8,4.875L5.46,18.985,2.688,17.446Z" transform="translate(6.865 9.379)"/>
              <ellipse id="Oval_16" data-name="Oval 16" class="cls-32" cx="1.471" cy="1.481" rx="1.471" ry="1.481" transform="translate(10.052 19.252)"/>
              <ellipse id="Oval_16_Copy" data-name="Oval 16 Copy" class="cls-32" cx="1.471" cy="1.481" rx="1.471" ry="1.481" transform="translate(21.33 19.252)"/>
              <ellipse id="Oval_19" data-name="Oval 19" class="cls-33" cx="0.613" cy="0.617" rx="0.613" ry="0.617" transform="translate(22.801 19.252)"/>
              <ellipse id="Oval_19-2" data-name="Oval 19" class="cls-33" cx="0.613" cy="0.617" rx="0.613" ry="0.617" transform="translate(11.278 19.252)"/>
              <g id="Combined_Shape-4" data-name="Combined Shape" class="cls-34" transform="translate(13.73 24.681)">
                <path class="cls-65" d="M 3.186897754669189 1.961899995803833 C 2.404484272003174 1.961899995803833 1.720282435417175 1.580628037452698 1.33346700668335 1 L 5.041076183319092 1 C 4.654099941253662 1.580633878707886 3.969627380371094 1.961899995803833 3.186897754669189 1.961899995803833 Z"/>
                <path class="cls-68" d="M 3.186897754669189 2.961899995803833 C 1.458687663078308 2.961899995803833 0.05888764932751656 1.660879969596863 0.0001276505208807066 -2.098083706769671e-09 L 6.37456750869751 -2.098083706769671e-09 C 6.315747737884521 1.661329984664917 4.915117740631104 2.961899995803833 3.186897754669189 2.961899995803833 Z"/>
              </g>
              <path id="Path_16" data-name="Path 16" class="cls-31" d="M5.149,2.221V0A6.018,6.018,0,0,0,3.923.987a12.445,12.445,0,0,0-.981,1.728l.245-.864s-1.539.272-1.961.37A4.878,4.878,0,0,0,0,2.962a4.557,4.557,0,0,1,1.716,0,6.15,6.15,0,0,1,1.471.74Z" transform="translate(6.865 0.247)"/>
              <path id="Path_18" data-name="Path 18" class="cls-35" d="M.407.409" transform="translate(29.258 52.409)"/>
            </g>
          </g>
        </g>
        <ellipse id="Oval_4" data-name="Oval 4" class="cls-33" cx="7.672" cy="7.68" rx="7.672" ry="7.68" transform="translate(203.319 51.841)"/>
        <path id="Path_39" data-name="Path 39" class="cls-3" d="M10.007.417A1.423,1.423,0,0,1,12.018,2.43L5.272,9.183a1.421,1.421,0,0,1-2.011,0L.417,6.336A1.423,1.423,0,0,1,2.428,4.323L4.267,6.163Z" transform="translate(207.655 53.761)"/>
        <path id="Path_40" data-name="Path 40" class="cls-36" d="M99.741,0,0,65.282V0Z" transform="translate(141.94 15.36)"/>
      </g>
      <g id="Group_4-2" data-name="Group 4" transform="translate(354.975 159.272) rotate(161)">
        <g id="Group-3" data-name="Group" transform="translate(83.629 0) rotate(180)">
          <g class="cls-71" transform="matrix(0.95, 0.33, -0.33, 0.95, -205.17, -327.65)">
            <path id="Combined_Shape-5" data-name="Combined Shape" class="cls-33" d="M82.087,71.493c-12.257,0-18.418-1.023-26.693-7.872a50.175,50.175,0,0,1-14.351,2.064C18.376,65.684,0,50.98,0,32.842S18.376,0,41.044,0,82.087,14.7,82.087,32.842c0,9.512-5.053,18.079-13.129,24.077C71.961,62.577,73.6,65.834,82.087,71.493Z" transform="translate(303.35 250.82) rotate(-19)"/>
          </g>
          <g id="Group_3-4" data-name="Group 3" transform="translate(58.51 0) rotate(180)">
            <path id="_" data-name="!" class="cls-3" d="M-9.958,55.606h4.026a5.1,5.1,0,0,0,3.659-1.2,4.633,4.633,0,0,0,1.244-3.484V47.757a4.657,4.657,0,0,0-1.226-3.511,5.165,5.165,0,0,0-3.677-1.17H-9.958a5.229,5.229,0,0,0-3.705,1.17A4.637,4.637,0,0,0-14.9,47.757v3.168a4.591,4.591,0,0,0,1.263,3.484A5.17,5.17,0,0,0-9.958,55.606Zm1.979-16.864a4.806,4.806,0,0,0,3.35-1.228,4.953,4.953,0,0,0,1.253-3.377L0,8.619A11.068,11.068,0,0,0-2.84,2.2,6.7,6.7,0,0,0-7.856,0a6.917,6.917,0,0,0-5.162,2.269,10.831,10.831,0,0,0-2.868,6.35l3.25,25.517c.141,2.953,1.708,4.5,4.657,4.605Z" transform="translate(23.415 -2.552) rotate(169)"/>
            <path id="_copy" data-name="! copy" class="cls-3" d="M-6.638,38.394h2.684a3.328,3.328,0,0,0,2.439-.826,3.264,3.264,0,0,0,.83-2.406V32.975A3.283,3.283,0,0,0-1.5,30.551a3.368,3.368,0,0,0-2.451-.808H-6.638a3.41,3.41,0,0,0-2.471.808,3.268,3.268,0,0,0-.823,2.424v2.187a3.236,3.236,0,0,0,.842,2.406A3.372,3.372,0,0,0-6.638,38.394ZM-5.4,26.753h.142c-.021,0-.041,0-.062,0A3.142,3.142,0,0,0-3.086,25.9,3.489,3.489,0,0,0-2.25,23.57L0,5.951a7.738,7.738,0,0,0-1.961-4.5A4.383,4.383,0,0,0-5.237,0a4.523,4.523,0,0,0-3.37,1.49,7.72,7.72,0,0,0-1.983,4.46L-8.424,23.57c.094,2.039,1.139,3.108,3.1,3.179h-.008l-.072,0Z" transform="translate(0.463 -1.974) rotate(-171)"/>
          </g>
        </g>
      </g>
      <g id="Group_25" data-name="Group 25" transform="translate(95.416 183.7)">
        <path id="Path_36-4" data-name="Path 36" class="cls-7" d="M0,238.77c0,8.735,5.334,19.9,27.155,29.6s48.007,7.28,51.886-4.368,12.85-54.354,24.488-65.516,42.915-25.721,60.372-56.781,43.158-30.089,43.158-50.472-16.972-23.295-16.972-23.295,10.183-17.956,3.879-26.206-17.942-4.368-17.942-4.368h-6.789s17.942-13.1,17.942-21.839S185.723,0,176.025,0s-9.7,5.824-9.7,5.824L92.89,35.409s-4.745-1.4-7.06-.467S51.886,51.928,51.886,51.928s-36.369,46.1-38.308,63.09,1.94,36.883,9.7,59.692S0,230.034,0,238.77Z"/>
        <path id="Combined_Shape-6" data-name="Combined Shape" class="cls-8" d="M26.421,147.321,0,48.717c5.271-2.673,30.926-15.671,33-16.508,2.315-.933,7.06.466,7.06.466L113.5,3.091A4.918,4.918,0,0,1,114.559.368l7.867,29.36c-3.311,2.93-6.018,4.907-6.018,4.907H123.2s.179-.06.5-.149l19.4,72.39c-9.046,6.87-21.917,14.116-32.025,32.1a98.7,98.7,0,0,1-7.589,11.508l-48.894,13.1a22.975,22.975,0,0,1-28.169-16.264Z" transform="translate(52.828 2.733)"/>
      </g>
      <g id="Group_28" data-name="Group 28" transform="matrix(0.966, -0.259, 0.259, 0.966, 118.348, 126.437)">
        <g id="Rectangle_24-2" data-name="Rectangle 24" class="cls-39">
          <rect class="cls-65" width="123.169" height="232.461" rx="23"/>
          <rect class="cls-66" x="3.5" y="3.5" width="116.169" height="225.461" rx="19.5"/>
        </g>
        <g id="Group_28-2" data-name="Group 28" class="cls-40">
          <rect id="Rectangle-2" data-name="Rectangle" class="cls-8" width="145.095" height="92.49" rx="3" transform="matrix(0.966, -0.259, 0.259, 0.966, 103.935, -25.194)"/>
          <rect id="Rectangle_23" data-name="Rectangle 23" class="cls-8" width="135.777" height="61.634" rx="30.817" transform="translate(-101.635 -40.101)"/>
          <g id="Group_19-3" data-name="Group 19" transform="translate(36.854 34.457)">
            <ellipse id="Oval_23-4" data-name="Oval 23" class="cls-5" cx="24.003" cy="24.023" rx="24.003" ry="24.023" transform="translate(0 0)"/>
            <g id="Group_19-4" data-name="Group 19" class="cls-41">
              <g id="Group_11-2" data-name="Group 11" transform="translate(4.364 5.338)">
                <rect id="Rectangle_5-2" data-name="Rectangle 5" class="cls-24" width="24.986" height="19.462" rx="9.731" transform="translate(7.299 33.847)"/>
                <path id="Path_17-2" data-name="Path 17" class="cls-25" d="M3.14,7.223S5.129,3.817,3.425.979,2,3.533,2,3.533.868,2.114.3,2.4.584,4.669.868,4.952-.992,7.223.584,9.21,3.14,7.223,3.14,7.223Z" transform="translate(0.561 34.411)"/>
                <g id="Group_3-5" data-name="Group 3" transform="translate(0 34.411)">
                  <path id="Path_12-4" data-name="Path 12" class="cls-6" d="M30.392,14.217l-.815,13.1s-20.315,2.02-20.315-1.76V14.217s-1.737,4.943-3.184,4.943S0,9.274,0,9.274L4.342,6.948,6.078,9.856s1.447-3.78,2.316-6.106,3.184-2.617,6.078-3.2,8.394-.872,11.288,0,4.631,1.745,5.21,3.2,6.368,21.518,6.368,21.518l-3.184,1.116Z" transform="translate(0 0.031)"/>
                  <g id="Group_3-6" data-name="Group 3" class="cls-42">
                    <g id="Rectangle_6-3" data-name="Rectangle 6" class="cls-27" transform="translate(9.841 6.979)">
                      <path class="cls-65" d="M 21.38056755065918 3.826279640197754 L 19.68235778808594 3.826279640197754 L -2.059631242445903e-06 3.826279640197754 L -1.698212027549744 3.826279640197754 L -1.488522052764893 2.141069650650024 L -1.199072003364563 -0.1852104216814041 L -1.035482048988342 -1.500000476837158 L 0.2894479334354401 -1.500000476837158 L 19.39290809631348 -1.500000476837158 L 20.71783828735352 -1.500000476837158 L 20.88142776489258 -0.1852104216814041 L 21.17087745666504 2.141069650650024 L 21.38056755065918 3.826279640197754 Z"/>
                      <path class="cls-67" d="M 19.68235778808594 2.326279640197754 L 19.39290809631348 -4.183197006568662e-07 L 0.2894479334354401 -4.183197006568662e-07 L -2.059631242445903e-06 2.326279640197754 L 19.68235778808594 2.326279640197754 M 23.07876777648926 5.326279640197754 L 19.68235778808594 5.326279640197754 L -2.059631242445903e-06 5.326279640197754 L -3.396412134170532 5.326279640197754 L -2.977041959762573 1.955859541893005 L -2.687592029571533 -0.3704204261302948 L -2.360412120819092 -3.000000476837158 L 0.2894479334354401 -3.000000476837158 L 19.39290809631348 -3.000000476837158 L 22.04276847839355 -3.000000476837158 L 22.36994743347168 -0.3704204261302948 L 22.65939712524414 1.955859541893005 L 23.07876777648926 5.326279640197754 Z"/>
                    </g>
                    <g id="Rectangle_6-4" data-name="Rectangle 6" class="cls-27" transform="translate(10.131 11.922)">
                      <path class="cls-65" d="M 21.22097587585449 4.407844543457031 L 19.39291572570801 4.407844543457031 L 5.001831141271396e-06 4.407844543457031 L -1.828045010566711 4.407844543457031 L -1.47112500667572 2.614974498748779 L -0.8922349810600281 -0.2928654551506042 L -0.6519250273704529 -1.499995470046997 L 0.5788949728012085 -1.499995470046997 L 18.81401443481445 -1.499995470046997 L 20.04482460021973 -1.499995470046997 L 20.2851448059082 -0.2928754687309265 L 20.86404418945313 2.614964485168457 L 21.22097587585449 4.407844543457031 Z"/>
                      <path class="cls-67" d="M 19.39291572570801 2.907844543457031 L 18.81401443481445 4.53670509159565e-06 L 0.5788949728012085 4.53670509159565e-06 L 5.001831141271396e-06 2.907844543457031 L 19.39291572570801 2.907844543457031 M 23.04903411865234 5.907844543457031 L 19.39291572570801 5.907844543457031 L 5.001831141271396e-06 5.907844543457031 L -3.656105041503906 5.907844543457031 L -2.942255020141602 2.322104454040527 L -2.363364934921265 -0.5857354402542114 L -1.882735013961792 -2.999995470046997 L 0.5788949728012085 -2.999995470046997 L 18.81401443481445 -2.999995470046997 L 21.27564430236816 -2.999995470046997 L 21.75627517700195 -0.5857454538345337 L 22.33517456054688 2.322094440460205 L 23.04903411865234 5.907844543457031 Z"/>
                    </g>
                    <g id="Oval_14-2" data-name="Oval 14" class="cls-28" transform="translate(14.762 -2.035)">
                      <ellipse class="cls-65" cx="5.065" cy="2.472" rx="5.065" ry="2.472"/>
                      <ellipse class="cls-66" cx="5.065" cy="2.472" rx="6.565" ry="3.972"/>
                    </g>
                    <path id="Path_13-3" data-name="Path 13" class="cls-24" d="M4.052,3.709S5.21,8.943,1.737,17.376s0,2.617,0,2.617S8.1,10.4,6.078,3.418,4.052,3.709,4.052,3.709Z" transform="translate(7.526 -2.546)"/>
                    <path id="Path_14-2" data-name="Path 14" class="cls-29" d="M0,0V3.2L.868,4.653l1.737.291,2.026-.291L4.921,3.2V0Z" transform="translate(22.866 8.724)"/>
                    <path id="Path_8-2" data-name="Path 8" class="cls-30" d="M3.043,6.26C1.193,6.26.594,5.666.137,4.568A1.74,1.74,0,0,1,0,3.894V1.163c0-.052,0-.1,0-.154C0,.633,0,.309.167.136A.556.556,0,0,1,.581,0H5.508a.555.555,0,0,1,.413.136c.172.173.169.5.166.873,0,.053,0,.1,0,.153V3.893a1.738,1.738,0,0,1-.136.677C5.492,5.666,4.892,6.26,3.043,6.26Zm-1.884-5.1V3.894a.581.581,0,0,0,.045.225l.038.091,0,.005c.248.6.482,1.172,1.8,1.172s1.552-.569,1.8-1.172l.04-.1a.574.574,0,0,0,.046-.226V1.163Z" transform="translate(22.286 7.851)"/>
                    <path id="Path_13-4" data-name="Path 13" class="cls-24" d="M-2.678,3.709S-4.141,9.773-.562,17.376a6.908,6.908,0,0,1,.289,4.653C-.4,22.295-.852,19.7-.852,19.7S-6.731,10.4-4.7,3.418-2.678,3.709-2.678,3.709Z" transform="translate(30.954 -2.546)"/>
                  </g>
                </g>
                <path id="Oval_15-4" data-name="Oval 15" class="cls-25" d="M12.493,19.462c6.9,0,12.493-4.358,12.493-9.733,0-3.332-2.149-6.273-5.425-8.027-.983-.526,3.424,4.687,2.266,4.4-.68-.171-4.937-.4-7.18-2.034-1.752-1.278-1.71-2.848-2.3-2.848-.373,0-1.084-1.451-.962-1.182,4.7,10.422-3.463.536-4.953,1.182C2.6,2.876,0,6.066,0,9.729,0,15.1,5.593,19.462,12.493,19.462Z" transform="translate(7.019 14.385)"/>
                <rect id="Rectangle_7-2" data-name="Rectangle 7" class="cls-25" width="3.93" height="3.103" transform="translate(17.406 32.719)"/>
                <ellipse id="Oval_15-5" data-name="Oval 15" class="cls-31" cx="13.897" cy="15.372" rx="13.897" ry="15.372" transform="translate(7.019 0)"/>
                <ellipse id="Oval_11-3" data-name="Oval 11" class="cls-25" cx="4.071" cy="2.821" rx="4.071" ry="2.821" transform="matrix(0.883, 0.469, -0.469, 0.883, 6.012, 21.83)"/>
                <ellipse id="Oval_11-4" data-name="Oval 11" class="cls-25" cx="4.071" cy="2.821" rx="4.071" ry="2.821" transform="matrix(0.883, -0.469, 0.469, 0.883, 25.823, 25.652)"/>
                <path id="Oval_15-6" data-name="Oval 15" class="cls-31" d="M13.195,28.77c7.287,0,13.195-6.5,13.195-14.529S19.177,0,11.89,0,0,6.217,0,14.241,5.908,28.77,13.195,28.77Z" transform="translate(3.93 1.692)"/>
                <path id="Path_15-2" data-name="Path 15" class="cls-25" d="M.77,17.592S-.385,12.314.192,9.675A23.12,23.12,0,0,1,2.212,4.4s-.289,2.346.577,3.225S1.058,7.623,5.675,0c0,5.278,5.771,7.037,5.771,7.037A21.713,21.713,0,0,1,10,4.1a11.35,11.35,0,0,1-.289-2.639s2.776,3.963,4.617,5.278,6.06,2.346,6.06,2.346a34.746,34.746,0,0,1-2.02-3.225,5.258,5.258,0,0,1-.289-2.052,18.43,18.43,0,0,0,3.751,4.1,14.525,14.525,0,0,0,2.02.88c-.43.8.289,4.984.289,4.984v.293l-.866,2.639-7.791,5.571L6.252,21.7,3.078,19.937Z" transform="translate(7.861 10.718)"/>
                <ellipse id="Oval_16-2" data-name="Oval 16" class="cls-32" cx="1.684" cy="1.692" rx="1.684" ry="1.692" transform="translate(11.51 22.001)"/>
                <ellipse id="Oval_16_Copy-2" data-name="Oval 16 Copy" class="cls-32" cx="1.684" cy="1.692" rx="1.684" ry="1.692" transform="translate(24.424 22.001)"/>
                <ellipse id="Oval_19-3" data-name="Oval 19" class="cls-33" cx="0.702" cy="0.705" rx="0.702" ry="0.705" transform="translate(26.109 22.001)"/>
                <ellipse id="Oval_19-4" data-name="Oval 19" class="cls-33" cx="0.702" cy="0.705" rx="0.702" ry="0.705" transform="translate(12.914 22.001)"/>
                <g id="Combined_Shape-7" data-name="Combined Shape" class="cls-34" transform="translate(15.722 28.206)">
                  <path class="cls-65" d="M 3.64949631690979 2.384900093078613 C 2.606286525726318 2.384900093078613 1.707289695739746 1.825342297554016 1.27405846118927 1 L 6.025725841522217 1 C 5.592341423034668 1.825348973274231 4.693047046661377 2.384900093078613 3.64949631690979 2.384900093078613 Z"/>
                  <path class="cls-68" d="M 3.64949631690979 3.384900093078613 C 1.670176267623901 3.384900093078613 0.06729621440172195 1.898070096969604 0.0003862127778120339 4.653930574249898e-08 L 7.299506187438965 4.653930574249898e-08 C 7.232536315917969 1.898530006408691 5.628826141357422 3.384900093078613 3.64949631690979 3.384900093078613 Z"/>
                </g>
                <path id="Path_16-2" data-name="Path 16" class="cls-31" d="M5.9,2.539V0a6.889,6.889,0,0,0-1.4,1.128A14.214,14.214,0,0,0,3.369,3.1l.281-.987s-1.762.311-2.246.423A5.587,5.587,0,0,0,0,3.385a5.229,5.229,0,0,1,1.965,0,7.048,7.048,0,0,1,1.684.846Z" transform="translate(7.861 0.282)"/>
                <path id="Path_18-2" data-name="Path 18" class="cls-35" d="M.281.282" transform="translate(33.689 60.079)"/>
              </g>
            </g>
          </g>
          <g id="Group_33" data-name="Group 33" transform="translate(15.032 102.399)">
            <rect id="Rectangle_25" data-name="Rectangle 25" class="cls-43" width="93.589" height="20.868" rx="10.434"/>
            <path id="OCORRÊNCIAS" class="cls-33" d="M46.189,6.273a2.623,2.623,0,0,1-.886-.15,2.361,2.361,0,0,1-.654-.334.56.56,0,0,1-.123-.129.238.238,0,0,1-.036-.137v-.03a.449.449,0,0,1,.089-.219l.212-.309a.341.341,0,0,1,.226-.162.2.2,0,0,1,.042,0,.5.5,0,0,1,.246.079l.106.061c.066.038.117.065.158.084s.089.039.167.071a1.073,1.073,0,0,0,.22.063,1.331,1.331,0,0,0,.233.02.647.647,0,0,0,.383-.1.293.293,0,0,0,.131-.246.318.318,0,0,0-.073-.2.675.675,0,0,0-.2-.165,2.908,2.908,0,0,0-.285-.142c-.107-.048-.22-.1-.337-.148s-.238-.106-.356-.165a2.078,2.078,0,0,1-.34-.209,1.848,1.848,0,0,1-.285-.267,1.115,1.115,0,0,1-.2-.35,1.332,1.332,0,0,1-.073-.449,1.347,1.347,0,0,1,.49-1.076,1.869,1.869,0,0,1,1.24-.413,2.569,2.569,0,0,1,.752.111,2.027,2.027,0,0,1,.56.25.361.361,0,0,1,.173.3.456.456,0,0,1-.059.212l-.163.322a.47.47,0,0,1-.109.146.211.211,0,0,1-.128.053h-.023a.393.393,0,0,1-.107-.015.912.912,0,0,1-.14-.059c-.1-.047-.182-.087-.238-.111a1.666,1.666,0,0,0-.232-.074,1.227,1.227,0,0,0-.3-.038.7.7,0,0,0-.4.093.289.289,0,0,0-.131.246.328.328,0,0,0,.073.206.686.686,0,0,0,.2.164,2.461,2.461,0,0,0,.287.139l.114.048.225.094c.12.049.24.1.355.158a2.127,2.127,0,0,1,.34.2,1.712,1.712,0,0,1,.286.263,1.089,1.089,0,0,1,.2.35,1.345,1.345,0,0,1,.073.451,1.5,1.5,0,0,1-.115.582,1.423,1.423,0,0,1-.863.813A2.088,2.088,0,0,1,46.189,6.273Zm-10.464,0a2.859,2.859,0,0,1-1.055-.192,2.3,2.3,0,0,1-.806-.529,2.4,2.4,0,0,1-.5-.8,2.754,2.754,0,0,1-.181-1,2.611,2.611,0,0,1,.189-.986,2.45,2.45,0,0,1,.52-.8,2.391,2.391,0,0,1,.807-.528,2.762,2.762,0,0,1,1.03-.192,2.69,2.69,0,0,1,1.554.461.335.335,0,0,1,.162.272.465.465,0,0,1-.083.246l-.168.279a.325.325,0,0,1-.275.182.481.481,0,0,1-.236-.079,1.839,1.839,0,0,0-.9-.272,1.545,1.545,0,0,0-.622.116,1.092,1.092,0,0,0-.431.315,1.393,1.393,0,0,0-.24.441,1.684,1.684,0,0,0-.079.515,1.718,1.718,0,0,0,.085.534,1.552,1.552,0,0,0,.247.464,1.149,1.149,0,0,0,.433.335,1.421,1.421,0,0,0,.608.126,1.729,1.729,0,0,0,.991-.348.449.449,0,0,1,.255-.1.331.331,0,0,1,.269.167l.189.266a.479.479,0,0,1,.093.252.341.341,0,0,1-.153.268A2.69,2.69,0,0,1,35.725,6.273Zm-23.038,0a2.6,2.6,0,0,1-1.321-.337,2.341,2.341,0,0,1-.9-.915,2.585,2.585,0,0,1-.317-1.289,2.505,2.505,0,0,1,.185-.976,2.4,2.4,0,0,1,.514-.789,2.363,2.363,0,0,1,.806-.525,2.868,2.868,0,0,1,2.062,0,2.363,2.363,0,0,1,.806.525,2.419,2.419,0,0,1,.516.789,2.574,2.574,0,0,1,.187.976,2.681,2.681,0,0,1-.187,1,2.485,2.485,0,0,1-.516.808,2.351,2.351,0,0,1-.806.537A2.772,2.772,0,0,1,12.686,6.273Zm0-3.934a1.237,1.237,0,0,0-.94.4,1.415,1.415,0,0,0-.369,1,1.507,1.507,0,0,0,.369,1.039,1.277,1.277,0,0,0,1.882,0A1.509,1.509,0,0,0,14,3.732a1.409,1.409,0,0,0-.371-1A1.241,1.241,0,0,0,12.686,2.339ZM8.055,6.273A2.927,2.927,0,0,1,7,6.081,2.291,2.291,0,0,1,6.2,5.552a2.393,2.393,0,0,1-.506-.8,2.826,2.826,0,0,1-.181-1A2.68,2.68,0,0,1,5.7,2.767a2.433,2.433,0,0,1,.521-.8,2.38,2.38,0,0,1,.806-.528,2.839,2.839,0,0,1,1.03-.192,2.7,2.7,0,0,1,1.555.461.335.335,0,0,1,.162.272.475.475,0,0,1-.083.246l-.169.279a.323.323,0,0,1-.275.182.492.492,0,0,1-.235-.079,1.9,1.9,0,0,0-.9-.272,1.492,1.492,0,0,0-.622.116,1.161,1.161,0,0,0-.43.315,1.393,1.393,0,0,0-.24.441,1.65,1.65,0,0,0-.08.515,1.833,1.833,0,0,0,.085.534,1.577,1.577,0,0,0,.248.464,1.132,1.132,0,0,0,.432.335,1.421,1.421,0,0,0,.608.126A1.724,1.724,0,0,0,9.1,4.837a.455.455,0,0,1,.256-.1.33.33,0,0,1,.268.167l.189.266a.525.525,0,0,1,.093.252.339.339,0,0,1-.152.268A2.691,2.691,0,0,1,8.055,6.273Zm-5.519,0a2.6,2.6,0,0,1-1.321-.337,2.341,2.341,0,0,1-.9-.915A2.576,2.576,0,0,1,0,3.732a2.493,2.493,0,0,1,.185-.976A2.4,2.4,0,0,1,.7,1.967,2.372,2.372,0,0,1,1.5,1.443a2.868,2.868,0,0,1,2.062,0,2.363,2.363,0,0,1,.805.525,2.419,2.419,0,0,1,.516.789,2.561,2.561,0,0,1,.187.976,2.668,2.668,0,0,1-.187,1,2.485,2.485,0,0,1-.516.808,2.351,2.351,0,0,1-.805.537A2.779,2.779,0,0,1,2.536,6.273Zm0-3.934a1.237,1.237,0,0,0-.94.4,1.415,1.415,0,0,0-.369,1A1.507,1.507,0,0,0,1.6,4.772a1.212,1.212,0,0,0,.94.413,1.213,1.213,0,0,0,.941-.414,1.509,1.509,0,0,0,.371-1.039,1.409,1.409,0,0,0-.371-1A1.241,1.241,0,0,0,2.536,2.339ZM43.876,6.19h-.451A.4.4,0,0,1,43,5.879l-.2-.706H41.287l-.2.706a.394.394,0,0,1-.414.311h-.447a.327.327,0,0,1-.289-.119.263.263,0,0,1-.046-.153.474.474,0,0,1,.03-.156l1.4-4.124a.405.405,0,0,1,.421-.305h.61a.4.4,0,0,1,.421.305l1.4,4.124a.485.485,0,0,1,.031.156.262.262,0,0,1-.047.153A.327.327,0,0,1,43.876,6.19ZM42.043,2.442h0c-.073.349-.14.629-.2.832l-.279.946h.958l-.272-.946c-.028-.094-.056-.206-.088-.343s-.058-.256-.077-.35l-.031-.139ZM38.986,6.19h-.441a.332.332,0,0,1-.374-.374V1.706a.331.331,0,0,1,.374-.372h.441a.331.331,0,0,1,.374.372v4.11A.332.332,0,0,1,38.986,6.19Zm-6.865,0h-.53a.478.478,0,0,1-.441-.252l-1.2-2.011c-.064-.11-.124-.224-.185-.35-.072-.143-.127-.259-.163-.343L29.539,3.1h-.014c.038.36.057.639.057.829V5.816a.332.332,0,0,1-.375.374h-.44a.332.332,0,0,1-.375-.374V1.706a.331.331,0,0,1,.375-.372h.53a.487.487,0,0,1,.447.248L30.938,3.6c.069.121.131.239.185.35.073.147.121.25.163.344l.059.136h.014c-.036-.364-.053-.636-.053-.83v-1.9a.331.331,0,0,1,.374-.372h.441a.329.329,0,0,1,.372.372v4.11A.331.331,0,0,1,32.121,6.19Zm-4.764,0H24.968a.332.332,0,0,1-.375-.374V1.706a.331.331,0,0,1,.375-.372h2.293a.331.331,0,0,1,.375.372v.272a.332.332,0,0,1-.375.374H25.783v.883H26.89a.331.331,0,0,1,.371.375v.272a.329.329,0,0,1-.371.372H25.783v.919h1.574a.329.329,0,0,1,.372.372v.272A.331.331,0,0,1,27.357,6.19Zm-3.683,0h-.517a.477.477,0,0,1-.441-.266L22,4.551h-.557V5.816a.332.332,0,0,1-.374.374h-.441a.332.332,0,0,1-.374-.374V1.706a.328.328,0,0,1,.374-.372h1.316a2.846,2.846,0,0,1,.945.113,1.33,1.33,0,0,1,.658.526,1.575,1.575,0,0,1,.237.887,1.636,1.636,0,0,1-.191.782,1.215,1.215,0,0,1-.535.545V4.2a3.344,3.344,0,0,1,.182.292l.693,1.251A.425.425,0,0,1,24,5.952a.211.211,0,0,1-.031.112A.3.3,0,0,1,23.675,6.19ZM21.441,2.352V3.533h.514a.638.638,0,0,0,.454-.155.576.576,0,0,0,.166-.443.786.786,0,0,0-.063-.327.4.4,0,0,0-.221-.191,1.2,1.2,0,0,0-.448-.067ZM19.332,6.19h-.517a.477.477,0,0,1-.441-.266l-.719-1.373H17.1V5.816a.332.332,0,0,1-.374.374h-.441a.332.332,0,0,1-.374-.374V1.706a.328.328,0,0,1,.374-.372H17.6a2.839,2.839,0,0,1,.945.113,1.33,1.33,0,0,1,.658.526,1.567,1.567,0,0,1,.237.887,1.626,1.626,0,0,1-.191.782,1.215,1.215,0,0,1-.535.545V4.2a3.345,3.345,0,0,1,.182.292l.693,1.251a.425.425,0,0,1,.067.209.207.207,0,0,1-.031.112A.3.3,0,0,1,19.332,6.19ZM17.1,2.352V3.533h.514a.638.638,0,0,0,.454-.155.576.576,0,0,0,.166-.443.8.8,0,0,0-.063-.327.4.4,0,0,0-.221-.191,1.2,1.2,0,0,0-.448-.067Zm9.859-1.333h-.232a.39.39,0,0,1-.219-.055.719.719,0,0,1-.159-.2l-.173-.3h-.013l-.169.3a.719.719,0,0,1-.159.2.39.39,0,0,1-.219.055h-.232c-.127,0-.207-.044-.237-.131a.38.38,0,0,1,.081-.323l.209-.319A.526.526,0,0,1,25.889,0h.556A.532.532,0,0,1,26.9.246l.209.319a.38.38,0,0,1,.081.323C27.164.975,27.084,1.019,26.957,1.019Z" transform="translate(23.089 6.913)"/>
          </g>
          <g id="Group_32" data-name="Group 32" transform="translate(15.032 130.547)">
            <rect id="Rectangle_25_Copy" data-name="Rectangle 25 Copy" class="cls-44" width="93.589" height="20.868" rx="10.434"/>
            <path id="BOLETIM" class="cls-33" d="M6.59,5.023a2.608,2.608,0,0,1-1.321-.337,2.35,2.35,0,0,1-.9-.916,2.658,2.658,0,0,1-.316-1.289,2.535,2.535,0,0,1,.185-.975,2.383,2.383,0,0,1,.514-.79A2.353,2.353,0,0,1,5.559.193a2.856,2.856,0,0,1,2.062,0,2.356,2.356,0,0,1,.805.524,2.4,2.4,0,0,1,.515.79,2.559,2.559,0,0,1,.187.975,2.677,2.677,0,0,1-.187,1,2.478,2.478,0,0,1-.515.807,2.368,2.368,0,0,1-.805.537A2.678,2.678,0,0,1,6.59,5.023Zm0-3.935a1.234,1.234,0,0,0-.94.4,1.408,1.408,0,0,0-.37,1,1.508,1.508,0,0,0,.37,1.04,1.275,1.275,0,0,0,1.881,0A1.506,1.506,0,0,0,7.9,2.481a1.405,1.405,0,0,0-.372-1A1.238,1.238,0,0,0,6.59,1.088ZM28.332,4.94h-.441a.35.35,0,0,1-.388-.362l-.122-1.825c-.009-.107-.014-.231-.014-.366s0-.24.007-.327l.006-.122h-.014c-.107.338-.2.612-.272.815l-.4,1.105a.425.425,0,0,1-.427.3h-.382a.423.423,0,0,1-.427-.3l-.4-1.105-.272-.815h-.014c.009.156.014.3.014.429s0,.265-.014.386l-.122,1.825a.35.35,0,0,1-.388.362h-.447a.36.36,0,0,1-.275-.1.346.346,0,0,1-.083-.236.356.356,0,0,1,0-.053L23.8.441a.347.347,0,0,1,.384-.358H24.8a.4.4,0,0,1,.42.305l.6,1.745c.039.113.076.224.111.34l.008.027c.037.122.067.223.09.3l.036.132h.014c.1-.344.176-.607.245-.8l.6-1.745a.4.4,0,0,1,.421-.305h.609a.349.349,0,0,1,.388.358l.332,4.11c0,.018,0,.036,0,.053a.332.332,0,0,1-.079.236A.36.36,0,0,1,28.332,4.94Zm-6.036,0h-.441a.332.332,0,0,1-.374-.375V.455a.331.331,0,0,1,.374-.372H22.3a.331.331,0,0,1,.374.372v4.11A.332.332,0,0,1,22.3,4.94Zm-3.169,0h-.441a.331.331,0,0,1-.371-.375V1.1h-1.1A.332.332,0,0,1,16.84.726V.455a.331.331,0,0,1,.374-.372H20.6a.331.331,0,0,1,.374.372V.726A.332.332,0,0,1,20.6,1.1H19.5V4.565A.332.332,0,0,1,19.127,4.94Zm-2.893,0h-2.39a.332.332,0,0,1-.374-.375V.455a.331.331,0,0,1,.374-.372h2.294a.331.331,0,0,1,.374.372V.726a.332.332,0,0,1-.374.375H14.658v.882h1.107a.331.331,0,0,1,.372.375v.272A.329.329,0,0,1,15.765,3H14.658v.919h1.575a.329.329,0,0,1,.371.372v.272A.331.331,0,0,1,16.233,4.94Zm-3.623,0H10.186a.332.332,0,0,1-.374-.375V.455a.331.331,0,0,1,.374-.372h.441A.331.331,0,0,1,11,.455V3.921H12.61a.331.331,0,0,1,.374.372v.272A.332.332,0,0,1,12.61,4.94Zm-10.823,0H.374A.332.332,0,0,1,0,4.565V.455A.331.331,0,0,1,.374.083H1.787a1.966,1.966,0,0,1,1.2.33,1.1,1.1,0,0,1,.45.94,1.272,1.272,0,0,1-.147.6,1.058,1.058,0,0,1-.417.435V2.4a1.008,1.008,0,0,1,.443.264,1.049,1.049,0,0,1,.247.393,1.31,1.31,0,0,1,.07.437,1.428,1.428,0,0,1-.1.556,1.147,1.147,0,0,1-.272.411,1.468,1.468,0,0,1-.409.274,2.059,2.059,0,0,1-.5.157A3.02,3.02,0,0,1,1.787,4.94Zm-.6-2.024V3.921H1.9a.5.5,0,0,0,.38-.146.523.523,0,0,0,.134-.365.5.5,0,0,0-.13-.355.49.49,0,0,0-.377-.139Zm0-1.814v.862H1.8a.391.391,0,0,0,.32-.13.478.478,0,0,0,.108-.318.412.412,0,0,0-.111-.3A.449.449,0,0,0,1.78,1.1Z" transform="translate(32.766 8.163)"/>
          </g>
          <g id="Group_31" data-name="Group 31" transform="translate(15.032 158.695)">
            <rect id="Rectangle_25_Copy_2" data-name="Rectangle 25 Copy 2" class="cls-3" width="93.589" height="20.868" rx="10.434"/>
            <path id="ACESSO" class="cls-33" d="M23.277,5.023a2.6,2.6,0,0,1-1.32-.337,2.359,2.359,0,0,1-.9-.916,2.658,2.658,0,0,1-.316-1.289,2.568,2.568,0,0,1,.185-.975,2.377,2.377,0,0,1,.514-.79,2.347,2.347,0,0,1,.806-.524,2.856,2.856,0,0,1,2.062,0,2.362,2.362,0,0,1,.806.524,2.4,2.4,0,0,1,.515.79,2.549,2.549,0,0,1,.188.975,2.667,2.667,0,0,1-.188,1,2.472,2.472,0,0,1-.515.807,2.365,2.365,0,0,1-.806.537A2.678,2.678,0,0,1,23.277,5.023Zm0-3.935a1.234,1.234,0,0,0-.94.4,1.408,1.408,0,0,0-.37,1,1.508,1.508,0,0,0,.37,1.04,1.275,1.275,0,0,0,1.881,0,1.505,1.505,0,0,0,.372-1.039,1.4,1.4,0,0,0-.372-1A1.239,1.239,0,0,0,23.277,1.088ZM18.6,5.023a2.648,2.648,0,0,1-.887-.151,2.385,2.385,0,0,1-.654-.333.56.56,0,0,1-.122-.13.235.235,0,0,1-.037-.136v-.03a.459.459,0,0,1,.09-.22l.212-.309a.348.348,0,0,1,.226-.162.186.186,0,0,1,.043,0,.5.5,0,0,1,.245.08l.033.02.073.041c.064.036.117.064.157.083s.1.043.167.071a.99.99,0,0,0,.22.063,1.3,1.3,0,0,0,.234.02.641.641,0,0,0,.382-.1.293.293,0,0,0,.131-.245.324.324,0,0,0-.074-.2.675.675,0,0,0-.2-.165c-.086-.049-.182-.1-.284-.142s-.22-.1-.338-.148c-.143-.063-.256-.115-.356-.165a2.152,2.152,0,0,1-.34-.209,1.755,1.755,0,0,1-.284-.267,1.122,1.122,0,0,1-.2-.349,1.327,1.327,0,0,1-.073-.45,1.344,1.344,0,0,1,.49-1.076A1.859,1.859,0,0,1,18.7,0a2.543,2.543,0,0,1,.752.111,2.066,2.066,0,0,1,.561.251.364.364,0,0,1,.172.3.468.468,0,0,1-.059.212l-.163.321a.457.457,0,0,1-.109.147.21.21,0,0,1-.128.052H19.7a.406.406,0,0,1-.107-.015.876.876,0,0,1-.14-.058c-.114-.055-.186-.089-.237-.111a1.664,1.664,0,0,0-.232-.073,1.226,1.226,0,0,0-.3-.039.693.693,0,0,0-.4.094.286.286,0,0,0-.131.245.328.328,0,0,0,.073.206.663.663,0,0,0,.2.164,2.527,2.527,0,0,0,.287.14l.339.141c.132.054.248.106.355.157a2.223,2.223,0,0,1,.34.2,1.651,1.651,0,0,1,.287.262,1.11,1.11,0,0,1,.2.35,1.33,1.33,0,0,1,.073.451,1.528,1.528,0,0,1-.114.582,1.428,1.428,0,0,1-.864.813A2.07,2.07,0,0,1,18.6,5.023Zm-3.849,0a2.653,2.653,0,0,1-.887-.151,2.38,2.38,0,0,1-.654-.333.526.526,0,0,1-.122-.13.231.231,0,0,1-.037-.136v-.03a.457.457,0,0,1,.089-.22l.212-.309a.348.348,0,0,1,.226-.162.164.164,0,0,1,.042,0,.5.5,0,0,1,.246.08l.023.013.017.01.067.039c.068.039.119.066.158.083s.1.043.167.071a1.068,1.068,0,0,0,.22.063,1.284,1.284,0,0,0,.233.02.643.643,0,0,0,.383-.1.292.292,0,0,0,.13-.245.323.323,0,0,0-.073-.2.675.675,0,0,0-.2-.165,2.913,2.913,0,0,0-.285-.142c-.107-.048-.22-.1-.338-.148s-.24-.107-.356-.165a2.017,2.017,0,0,1-.34-.209,1.718,1.718,0,0,1-.284-.267,1.107,1.107,0,0,1-.2-.349,1.32,1.32,0,0,1-.073-.45,1.346,1.346,0,0,1,.49-1.076A1.86,1.86,0,0,1,14.847,0,2.543,2.543,0,0,1,15.6.111a2.093,2.093,0,0,1,.56.251.364.364,0,0,1,.173.3.474.474,0,0,1-.059.212l-.163.321A.445.445,0,0,1,16,1.337a.21.21,0,0,1-.128.052h-.023a.416.416,0,0,1-.107-.015.9.9,0,0,1-.14-.058c-.123-.059-.19-.091-.238-.111a1.545,1.545,0,0,0-.231-.073,1.226,1.226,0,0,0-.3-.039.7.7,0,0,0-.4.094.285.285,0,0,0-.131.245.328.328,0,0,0,.073.206.647.647,0,0,0,.2.164,2.306,2.306,0,0,0,.287.14l.339.141c.136.057.252.108.355.157a2.214,2.214,0,0,1,.34.2,1.725,1.725,0,0,1,.286.262,1.086,1.086,0,0,1,.2.35,1.323,1.323,0,0,1,.073.451,1.535,1.535,0,0,1-.114.582,1.428,1.428,0,0,1-.864.813A2.066,2.066,0,0,1,14.747,5.023Zm-7.7,0A2.819,2.819,0,0,1,5.993,4.83,2.3,2.3,0,0,1,5.188,4.3a2.4,2.4,0,0,1-.506-.8,2.722,2.722,0,0,1-.18-1,2.608,2.608,0,0,1,.189-.985,2.428,2.428,0,0,1,.52-.8A2.369,2.369,0,0,1,6.018.193,2.85,2.85,0,0,1,8.6.461a.336.336,0,0,1,.162.273.464.464,0,0,1-.083.245l-.169.279a.324.324,0,0,1-.274.183A.454.454,0,0,1,8,1.36a1.856,1.856,0,0,0-.9-.272,1.536,1.536,0,0,0-.621.116,1.11,1.11,0,0,0-.431.315,1.412,1.412,0,0,0-.24.441,1.693,1.693,0,0,0-.079.515,1.669,1.669,0,0,0,.084.534,1.536,1.536,0,0,0,.247.464,1.154,1.154,0,0,0,.433.336,1.43,1.43,0,0,0,.608.126,1.73,1.73,0,0,0,.992-.348.445.445,0,0,1,.255-.1.329.329,0,0,1,.269.166l.189.265a.46.46,0,0,1,.093.252.34.34,0,0,1-.153.269A2.691,2.691,0,0,1,7.047,5.023Zm5.211-.083H9.868a.332.332,0,0,1-.374-.375V.455A.331.331,0,0,1,9.868.083h2.294a.331.331,0,0,1,.374.372V.726a.332.332,0,0,1-.374.375H10.684v.882h1.107a.331.331,0,0,1,.372.375v.272A.329.329,0,0,1,11.791,3H10.684v.919h1.574a.329.329,0,0,1,.372.372v.272A.331.331,0,0,1,12.258,4.94Zm-8.27,0H3.537a.409.409,0,0,1-.421-.312l-.2-.707H1.4l-.2.707a.4.4,0,0,1-.415.312H.335a.327.327,0,0,1-.288-.12A.25.25,0,0,1,0,4.667a.487.487,0,0,1,.03-.156L1.435.388A.4.4,0,0,1,1.857.083h.609a.4.4,0,0,1,.421.305L4.293,4.512a.487.487,0,0,1,.03.156.259.259,0,0,1-.047.153A.327.327,0,0,1,3.988,4.94ZM2.155,1.191c-.069.334-.135.614-.2.833l-.278.945h.958l-.272-.945C2.33,1.906,2.3,1.79,2.276,1.68L2.269,1.65l-.014-.065C2.236,1.5,2.216,1.417,2.2,1.33l-.03-.14Z" transform="translate(34.051 8.163)"/>
          </g>
          <g id="Group_31-2" data-name="Group 31" transform="translate(15.032 186.842)">
            <rect id="Rectangle_25_Copy_2-2" data-name="Rectangle 25 Copy 2" class="cls-45" width="93.589" height="20.868" rx="10.434"/>
            <path id="CONSELHO_DE_CLASSE" data-name="CONSELHO DE CLASSE" class="cls-33" d="M67.584,5.023a2.64,2.64,0,0,1-.887-.151,2.38,2.38,0,0,1-.654-.333.564.564,0,0,1-.122-.13.235.235,0,0,1-.037-.136v-.03a.452.452,0,0,1,.09-.22l.212-.309a.348.348,0,0,1,.226-.162.2.2,0,0,1,.043,0,.5.5,0,0,1,.245.08l.021.012.015.008.07.04c.064.036.117.064.158.083s.1.042.167.071a.981.981,0,0,0,.22.063,1.317,1.317,0,0,0,.234.02.641.641,0,0,0,.382-.1.293.293,0,0,0,.131-.245.323.323,0,0,0-.073-.2.684.684,0,0,0-.2-.165c-.086-.049-.182-.1-.284-.142s-.221-.1-.338-.148c-.139-.061-.253-.113-.356-.165a2.122,2.122,0,0,1-.34-.209,1.722,1.722,0,0,1-.284-.267,1.12,1.12,0,0,1-.2-.349,1.335,1.335,0,0,1-.073-.45A1.344,1.344,0,0,1,66.443.413,1.862,1.862,0,0,1,67.683,0a2.552,2.552,0,0,1,.752.111A2.063,2.063,0,0,1,69,.362a.364.364,0,0,1,.172.3.462.462,0,0,1-.059.212l-.163.321a.457.457,0,0,1-.109.147.21.21,0,0,1-.128.052h-.022a.4.4,0,0,1-.107-.015.916.916,0,0,1-.14-.058c-.117-.056-.187-.09-.237-.111a1.7,1.7,0,0,0-.232-.073,1.226,1.226,0,0,0-.3-.039.693.693,0,0,0-.4.094.286.286,0,0,0-.131.245.328.328,0,0,0,.073.206.651.651,0,0,0,.2.164,2.527,2.527,0,0,0,.287.14l.339.141c.115.047.235.1.355.157a2.174,2.174,0,0,1,.34.2,1.675,1.675,0,0,1,.287.262,1.1,1.1,0,0,1,.2.35,1.337,1.337,0,0,1,.073.451,1.521,1.521,0,0,1-.114.582,1.428,1.428,0,0,1-.864.813A2.077,2.077,0,0,1,67.584,5.023Zm-3.849,0a2.645,2.645,0,0,1-.887-.151,2.385,2.385,0,0,1-.654-.333.53.53,0,0,1-.122-.13.231.231,0,0,1-.037-.136v-.03a.457.457,0,0,1,.089-.22l.212-.309a.348.348,0,0,1,.226-.162.175.175,0,0,1,.042,0,.5.5,0,0,1,.246.08l.023.013.017.01.067.039c.055.031.112.063.158.083s.1.043.167.071a1.052,1.052,0,0,0,.22.063,1.3,1.3,0,0,0,.233.02.643.643,0,0,0,.383-.1.292.292,0,0,0,.131-.245.323.323,0,0,0-.073-.2.675.675,0,0,0-.2-.165,3.012,3.012,0,0,0-.285-.142c-.107-.048-.22-.1-.337-.148s-.239-.106-.356-.165a2.017,2.017,0,0,1-.34-.209,1.712,1.712,0,0,1-.284-.267,1.1,1.1,0,0,1-.2-.349,1.327,1.327,0,0,1-.073-.45,1.346,1.346,0,0,1,.49-1.076A1.863,1.863,0,0,1,63.834,0a2.552,2.552,0,0,1,.752.111,2.067,2.067,0,0,1,.56.251.364.364,0,0,1,.173.3.468.468,0,0,1-.059.212l-.163.321a.451.451,0,0,1-.109.147.21.21,0,0,1-.128.052h-.022a.406.406,0,0,1-.107-.015.876.876,0,0,1-.14-.058c-.123-.059-.19-.091-.238-.111a1.606,1.606,0,0,0-.231-.073,1.226,1.226,0,0,0-.3-.039.7.7,0,0,0-.4.094.285.285,0,0,0-.131.245.328.328,0,0,0,.073.206.654.654,0,0,0,.2.164,2.429,2.429,0,0,0,.287.14l.339.141c.132.054.248.106.355.157a2.223,2.223,0,0,1,.34.2,1.713,1.713,0,0,1,.286.262,1.077,1.077,0,0,1,.2.35,1.33,1.33,0,0,1,.073.451,1.528,1.528,0,0,1-.114.582,1.428,1.428,0,0,1-.864.813A2.073,2.073,0,0,1,63.734,5.023Zm-12,0a2.819,2.819,0,0,1-1.054-.193,2.291,2.291,0,0,1-.806-.529,2.391,2.391,0,0,1-.506-.8,2.778,2.778,0,0,1-.181-1,2.615,2.615,0,0,1,.189-.985A2.425,2.425,0,0,1,49.9.72a2.364,2.364,0,0,1,.806-.527A2.732,2.732,0,0,1,51.738,0a2.694,2.694,0,0,1,1.554.461.333.333,0,0,1,.163.273.474.474,0,0,1-.083.245l-.169.279a.325.325,0,0,1-.275.183.462.462,0,0,1-.235-.08,1.862,1.862,0,0,0-.9-.272,1.533,1.533,0,0,0-.622.116,1.1,1.1,0,0,0-.43.315,1.376,1.376,0,0,0-.24.441,1.65,1.65,0,0,0-.08.515,1.734,1.734,0,0,0,.085.534,1.573,1.573,0,0,0,.247.464,1.17,1.17,0,0,0,.433.336,1.432,1.432,0,0,0,.608.126,1.724,1.724,0,0,0,.991-.348.442.442,0,0,1,.256-.1.329.329,0,0,1,.268.166l.189.265a.485.485,0,0,1,.093.252.339.339,0,0,1-.152.269A2.691,2.691,0,0,1,51.738,5.023Zm-17.638,0a2.608,2.608,0,0,1-1.321-.337,2.3,2.3,0,0,1-.9-.916,2.6,2.6,0,0,1-.317-1.289,2.516,2.516,0,0,1,.185-.975,2.4,2.4,0,0,1,.514-.79,2.362,2.362,0,0,1,.806-.524,2.856,2.856,0,0,1,2.062,0,2.347,2.347,0,0,1,.806.524,2.421,2.421,0,0,1,.516.79,2.559,2.559,0,0,1,.187.975,2.677,2.677,0,0,1-.187,1,2.49,2.49,0,0,1-.516.807,2.351,2.351,0,0,1-.806.537A2.669,2.669,0,0,1,34.1,5.023Zm0-3.935a1.231,1.231,0,0,0-.94.4,1.408,1.408,0,0,0-.37,1,1.508,1.508,0,0,0,.37,1.04,1.275,1.275,0,0,0,1.881,0,1.506,1.506,0,0,0,.371-1.039,1.4,1.4,0,0,0-.371-1A1.238,1.238,0,0,0,34.1,1.088ZM16.889,5.023A2.749,2.749,0,0,1,16,4.872a2.356,2.356,0,0,1-.655-.333.516.516,0,0,1-.122-.13.235.235,0,0,1-.037-.136v-.03a.572.572,0,0,1,.09-.22l.211-.309a.352.352,0,0,1,.226-.162.161.161,0,0,1,.043,0A.5.5,0,0,1,16,3.63l.033.02.073.041c.064.036.117.064.157.083.023.011.07.033.167.071a1.038,1.038,0,0,0,.22.063,1.135,1.135,0,0,0,.234.02.641.641,0,0,0,.382-.1.293.293,0,0,0,.131-.245.323.323,0,0,0-.073-.2.675.675,0,0,0-.2-.165c-.116-.063-.207-.108-.285-.142-.107-.048-.22-.1-.338-.148-.137-.06-.25-.112-.356-.165a1.756,1.756,0,0,1-.339-.209,1.788,1.788,0,0,1-.285-.267,1.122,1.122,0,0,1-.2-.349,1.235,1.235,0,0,1-.073-.45,1.344,1.344,0,0,1,.49-1.076A1.852,1.852,0,0,1,16.988,0a2.433,2.433,0,0,1,.752.111A2.047,2.047,0,0,1,18.3.362a.361.361,0,0,1,.172.3.56.56,0,0,1-.059.212l-.162.321a.419.419,0,0,1-.11.147.21.21,0,0,1-.128.052h-.023a.571.571,0,0,1-.106-.015.965.965,0,0,1-.141-.058c-.08-.041-.164-.08-.237-.111a1.585,1.585,0,0,0-.232-.073,1,1,0,0,0-.3-.039.7.7,0,0,0-.4.094.286.286,0,0,0-.131.245.328.328,0,0,0,.073.206.7.7,0,0,0,.2.164,2.643,2.643,0,0,0,.287.14c.108.046.221.093.34.141.136.056.245.1.355.157a2.569,2.569,0,0,1,.339.2,1.573,1.573,0,0,1,.287.262,1.13,1.13,0,0,1,.2.35,1.238,1.238,0,0,1,.073.451,1.6,1.6,0,0,1-.114.582,1.428,1.428,0,0,1-.864.813A1.98,1.98,0,0,1,16.889,5.023Zm-9.713,0a2.608,2.608,0,0,1-1.321-.337,2.307,2.307,0,0,1-.9-.916A2.571,2.571,0,0,1,4.64,2.481a2.693,2.693,0,0,1,.186-.975,2.383,2.383,0,0,1,.514-.79A2.353,2.353,0,0,1,6.146.193a2.856,2.856,0,0,1,2.062,0,2.37,2.37,0,0,1,.806.524,2.4,2.4,0,0,1,.515.79,2.559,2.559,0,0,1,.187.975,2.677,2.677,0,0,1-.187,1,2.478,2.478,0,0,1-.515.807,2.368,2.368,0,0,1-.806.537A2.678,2.678,0,0,1,7.177,5.023Zm0-3.935a1.234,1.234,0,0,0-.94.4,1.408,1.408,0,0,0-.37,1,1.508,1.508,0,0,0,.37,1.04,1.275,1.275,0,0,0,1.881,0A1.506,1.506,0,0,0,8.49,2.481a1.405,1.405,0,0,0-.372-1A1.238,1.238,0,0,0,7.177,1.088ZM2.546,5.023A2.821,2.821,0,0,1,1.491,4.83,2.3,2.3,0,0,1,.686,4.3a2.4,2.4,0,0,1-.5-.8A2.865,2.865,0,0,1,0,2.5a2.7,2.7,0,0,1,.189-.985,2.612,2.612,0,0,1,.52-.8A2.378,2.378,0,0,1,1.517.193,2.725,2.725,0,0,1,2.546,0,2.694,2.694,0,0,1,4.1.461a.335.335,0,0,1,.163.273A.468.468,0,0,1,4.18.978l-.168.279a.327.327,0,0,1-.275.183A.454.454,0,0,1,3.5,1.36a1.929,1.929,0,0,0-.9-.272,1.463,1.463,0,0,0-.622.116,1.105,1.105,0,0,0-.431.315,1.412,1.412,0,0,0-.24.441,1.811,1.811,0,0,0-.079.515,1.843,1.843,0,0,0,.085.534,1.516,1.516,0,0,0,.247.464,1.166,1.166,0,0,0,.433.336,1.432,1.432,0,0,0,.608.126,1.724,1.724,0,0,0,.991-.348.449.449,0,0,1,.255-.1.329.329,0,0,1,.269.166l.189.265a.558.558,0,0,1,.093.252.34.34,0,0,1-.153.269A2.69,2.69,0,0,1,2.546,5.023Zm70.2-.083h-2.39a.332.332,0,0,1-.374-.375V.455a.331.331,0,0,1,.374-.372h2.294a.331.331,0,0,1,.374.372V.726a.332.332,0,0,1-.374.375H71.167v.882h1.107a.331.331,0,0,1,.372.375v.272A.329.329,0,0,1,72.274,3H71.167v.919h1.575a.329.329,0,0,1,.371.372v.272A.331.331,0,0,1,72.742,4.94Zm-11.32,0h-.451a.409.409,0,0,1-.421-.312l-.2-.707H58.832l-.2.707a.394.394,0,0,1-.414.312h-.447a.33.33,0,0,1-.289-.12.263.263,0,0,1-.046-.153.487.487,0,0,1,.03-.156L58.869.388a.4.4,0,0,1,.42-.305h.61a.4.4,0,0,1,.421.305l1.4,4.124a.435.435,0,0,1,.031.156.259.259,0,0,1-.047.153A.327.327,0,0,1,61.421,4.94ZM59.588,1.191c-.068.332-.135.613-.2.833l-.279.945h.958L59.8,2.024c-.024-.078-.05-.181-.088-.344-.032-.14-.058-.253-.077-.35l-.03-.14ZM56.983,4.94H54.559a.332.332,0,0,1-.374-.375V.455a.331.331,0,0,1,.374-.372H55a.331.331,0,0,1,.374.372V3.921h1.608a.331.331,0,0,1,.374.372v.272A.332.332,0,0,1,56.983,4.94Zm-10.273,0H44.32a.332.332,0,0,1-.374-.375V.455A.331.331,0,0,1,44.32.083h2.294a.331.331,0,0,1,.374.372V.726a.332.332,0,0,1-.374.375H45.135v.882h1.107a.331.331,0,0,1,.372.375v.272A.329.329,0,0,1,46.242,3H45.135v.919H46.71a.329.329,0,0,1,.371.372v.272A.331.331,0,0,1,46.71,4.94Zm-5.963,0H39.394a.332.332,0,0,1-.374-.375V.455a.331.331,0,0,1,.374-.372h1.353a2.556,2.556,0,0,1,1.83.641A2.347,2.347,0,0,1,43.249,2.5a2.374,2.374,0,0,1-.674,1.79A2.54,2.54,0,0,1,40.747,4.94ZM40.209,1.1v2.82H40.7a1.3,1.3,0,0,0,.977-.364,1.476,1.476,0,0,0,.35-1.056,1.427,1.427,0,0,0-.355-1.039A1.308,1.308,0,0,0,40.7,1.1Zm-9.7,3.839h-.441a.332.332,0,0,1-.374-.375V3.038H27.928V4.565a.332.332,0,0,1-.374.375h-.441a.332.332,0,0,1-.374-.375V.455a.331.331,0,0,1,.374-.372h.441a.331.331,0,0,1,.374.372v1.57h1.763V.455a.331.331,0,0,1,.374-.372h.441a.331.331,0,0,1,.374.372v4.11A.332.332,0,0,1,30.506,4.94Zm-4.627,0H23.456a.332.332,0,0,1-.374-.375V.455a.331.331,0,0,1,.374-.372H23.9a.331.331,0,0,1,.374.372V3.921H25.88a.331.331,0,0,1,.374.372v.272A.332.332,0,0,1,25.88,4.94Zm-3.832,0h-2.39a.332.332,0,0,1-.374-.375V.455a.331.331,0,0,1,.374-.372h2.294a.331.331,0,0,1,.374.372V.726a.332.332,0,0,1-.374.375H20.472v.882h1.107a.331.331,0,0,1,.372.375v.272A.329.329,0,0,1,21.579,3H20.472v.919h1.575a.329.329,0,0,1,.371.372v.272A.331.331,0,0,1,22.047,4.94Zm-7.919,0H13.6a.479.479,0,0,1-.44-.253l-1.2-2.01c-.049-.082-.11-.2-.186-.35-.086-.175-.133-.274-.162-.344l-.059-.136h-.014a6.488,6.488,0,0,1,.056.83V4.565a.332.332,0,0,1-.374.375h-.441a.332.332,0,0,1-.374-.375V.455a.331.331,0,0,1,.374-.372H11.3a.484.484,0,0,1,.447.249l1.193,2.02c.051.089.11.2.185.35s.115.24.143.3l.016.035,0,.008.059.136h.014c-.035-.336-.053-.623-.053-.83V.455a.331.331,0,0,1,.374-.372h.441A.329.329,0,0,1,14.5.455v4.11A.331.331,0,0,1,14.128,4.94Z" transform="translate(10.492 8.163)"/>
          </g>
          <rect id="Rectangle_26" data-name="Rectangle 26" class="cls-46" width="121.714" height="32.03" transform="translate(0 201.887)"/>
          <ellipse id="Oval_25" data-name="Oval 25" class="cls-47" cx="6.304" cy="6.309" rx="6.304" ry="6.309" transform="translate(54.796 209.166)"/>
          <path id="Path_38-2" data-name="Path 38" class="cls-8" d="M.038,85.934c.97,22.809,11.153,67.943,43.643,59.692S64.532,91.758,58.228,80.111s-8.244-15.044-6.3-19.9,8.244-22.324,8.244-22.324,20.367-5.824,22.791-25.236C84.056,3.868,78.628-.439,73.746.035,67.84.609,61.69,7.3,55.319,10.227c-11.638,5.338-17.942,8.735-17.942,8.735A95.63,95.63,0,0,0,22.829,36.918C16.736,46.984-.931,63.125.038,85.934Z" transform="matrix(0.966, 0.259, -0.259, 0.966, -33.838, 90.373)"/>
        </g>
      </g>
      <path id="Path_39-2" data-name="Path 39" class="cls-48" d="M.222,13.723S3.616,25.37,14.769,25.37,23.983,7.9,18.164,3.046,7.1.134,3.131,2.075.222,13.723.222,13.723Z" transform="translate(279.463 251.509)"/>
      <g id="Group_29" data-name="Group 29" transform="matrix(0.966, -0.259, 0.259, 0.966, 0.7, 90.565)">
        <rect id="Rectangle_23-2" data-name="Rectangle 23" class="cls-43" width="135.777" height="61.634" rx="30.817" transform="translate(0 20.27)"/>
        <g id="Group_27" data-name="Group 27" transform="translate(9.698 29.976)">
          <ellipse id="Oval_24-2" data-name="Oval 24" class="cls-10" cx="21.336" cy="21.353" rx="21.336" ry="21.353" transform="translate(0 0)"/>
          <g id="Group_27-2" data-name="Group 27" class="cls-49">
            <g id="Ilustrações_Features_Boletim_Copy" data-name="Ilustrações / Features / Boletim Copy" transform="translate(1.012 -6.794)">
              <g id="Group_4-3" data-name="Group 4" transform="translate(1.897 37.368)">
                <g id="Path_2-2" data-name="Path 2" class="cls-27" transform="translate(0.267 0.178)">
                  <path class="cls-65" d="M 23.52968215942383 14.267014503479 L 4.586782932281494 14.267014503479 C 4.256874084472656 14.03604698181152 3.315639019012451 13.35627365112305 2.418658494949341 12.51306533813477 C 1.069848537445068 11.24510478973389 0.3960285186767578 10.15332508087158 0.5213184952735901 9.438855171203613 C 1.116248488426208 6.046225070953369 1.515248537063599 5.542654991149902 2.479228496551514 4.32605504989624 C 2.667928457260132 4.087904930114746 2.881798505783081 3.817984819412231 3.119978427886963 3.498414754867554 C 3.688018560409546 2.736224889755249 8.868368148803711 0.5204748511314392 14.3378381729126 0.5001348853111267 L 14.4100284576416 0.4999948740005493 C 17.51603889465332 0.4999948740005493 20.26242828369141 1.231064915657043 21.62307929992676 1.666844844818115 C 23.90715789794922 2.398374795913696 25.08536911010742 3.164614915847778 25.2914981842041 3.475764751434326 C 26.48627662658691 5.279274463653564 27.70378875732422 8.310927391052246 28.06652069091797 9.244914054870605 L 23.52968215942383 14.267014503479 Z"/>
                  <path class="cls-69" d="M 23.30754661560059 13.767014503479 L 27.48803329467773 9.139379501342773 C 27.03442001342773 7.994428157806396 25.94279479980469 5.365950584411621 24.87737846374512 3.755998134613037 C 24.70300102233887 3.531514167785645 23.58738899230957 2.811288118362427 21.38343811035156 2.115304946899414 C 19.10590934753418 1.396084904670715 16.62936782836914 0.9999948740005493 14.4100284576416 0.9999948740005493 L 14.33969879150391 1.00012481212616 C 12.08481884002686 1.008514881134033 9.53626823425293 1.419814825057983 7.163528442382813 2.158264875411987 C 4.889219284057617 2.866077661514282 3.710490942001343 3.581327676773071 3.517172813415527 3.802175760269165 C 3.276076555252075 4.125498294830322 3.061001777648926 4.39692497253418 2.871118545532227 4.636574745178223 C 1.936538457870483 5.816074848175049 1.586838483810425 6.257414817810059 1.013798475265503 9.525215148925781 C 0.9426084756851196 9.931175231933594 1.362028479576111 10.83147525787354 2.752678394317627 12.14081478118896 C 3.532642126083374 12.8751745223999 4.350481510162354 13.48444557189941 4.745775699615479 13.767014503479 L 23.30754661560059 13.767014503479 M 23.75179862976074 14.767014503479 L 4.431028366088867 14.767014503479 C 4.431028366088867 14.767014503479 -0.3574115037918091 11.55507469177246 0.02882850542664528 9.352495193481445 C 0.7625284790992737 5.168544769287109 1.251668453216553 5.168544769287109 2.71906852722168 3.19962477684021 C 3.460298538208008 2.205054759979248 8.900728225708008 0.0203548688441515 14.33597850799561 0.0001348695368506014 C 14.36067771911621 4.302383604226634e-05 14.385329246521 -2.630462631714181e-06 14.4100284576416 -2.630462631714181e-06 C 19.70990180969238 -2.630462631714181e-06 24.98553657531738 2.108579397201538 25.70832824707031 3.19962477684021 C 27.17572784423828 5.414654731750488 28.64313888549805 9.352495193481445 28.64313888549805 9.352495193481445 L 23.75179862976074 14.767014503479 Z"/>
                </g>
              </g>
              <g id="Group_3-7" data-name="Group 3" transform="translate(0)">
                <g id="Group-4" data-name="Group" transform="translate(12.77 36.297)">
                  <g id="Oval_13" data-name="Oval 13" class="cls-51" transform="translate(0.279 0.168)">
                    <ellipse class="cls-65" cx="2.925" cy="1.346" rx="2.925" ry="1.346"/>
                    <ellipse class="cls-66" cx="2.925" cy="1.346" rx="3.425" ry="1.846"/>
                  </g>
                </g>
                <g id="Group_2-3" data-name="Group 2" transform="translate(32.059) rotate(180)">
                  <ellipse id="Oval_11-5" data-name="Oval 11" class="cls-52" cx="3.9" cy="2.57" rx="3.9" ry="2.57" transform="matrix(-0.883, 0.469, -0.469, -0.883, 9.524, -27.583)"/>
                  <ellipse id="Oval_11-6" data-name="Oval 11" class="cls-52" cx="3.9" cy="2.57" rx="3.9" ry="2.57" transform="matrix(-0.883, -0.469, 0.469, -0.883, 29.533, -23.922)"/>
                  <g id="Group_9" data-name="Group 9" transform="translate(9.505)">
                    <ellipse id="Oval_18-3" data-name="Oval 18" class="cls-12" cx="6.093" cy="3.181" rx="6.093" ry="3.181" transform="translate(12.186 0) rotate(180)"/>
                    <g id="Group_9-2" data-name="Group 9" class="cls-53">
                      <ellipse id="Oval_18-4" data-name="Oval 18" class="cls-54" cx="6.093" cy="1.224" rx="6.093" ry="1.224" transform="translate(12.186 -2.937) rotate(180)"/>
                    </g>
                  </g>
                  <path id="Oval-2" data-name="Oval" class="cls-12" d="M-15.111,30.836c-8.345,0-15.111-7.089-15.111-16.886S-23.456,0-15.111,0,0,4.006,0,13.949-6.765,30.836-15.111,30.836Z" transform="translate(0.975 -3.671) rotate(180)"/>
                  <path id="Oval-3" data-name="Oval" class="cls-52" d="M-12.673,26.92a13.382,13.382,0,0,1-11.318-6.244c-1.321-2.085-1.356-4.561-1.356-7.216C-25.347,6.026-20.077,0-12.673,0S0,6.026,0,13.46c0,2.639-.025,5.1-1.332,7.177A13.383,13.383,0,0,1-12.673,26.92Z" transform="translate(3.412 -8.321) rotate(180)"/>
                  <path id="Combined_Shape-8" data-name="Combined Shape" class="cls-12" d="M0,13.865A13.932,13.932,0,0,0-12.348,0a16.165,16.165,0,0,0-.082,1.628A15.9,15.9,0,0,0-.371,17.079,14.042,14.042,0,0,0,0,13.865Z" transform="translate(1.706 -5.714) rotate(180)"/>
                  <ellipse id="Oval_9" data-name="Oval 9" class="cls-55" cx="1.462" cy="1.468" rx="1.462" ry="1.468" transform="translate(24.372 -22.27) rotate(180)"/>
                  <ellipse id="Oval_9-2" data-name="Oval 9" class="cls-55" cx="1.462" cy="1.468" rx="1.462" ry="1.468" transform="translate(10.967 -22.27) rotate(180)"/>
                  <g id="Combined_Shape-9" data-name="Combined Shape" class="cls-34" transform="translate(12.838 -30.102) rotate(180)">
                    <path class="cls-65" d="M -3.24719762802124 2.524899959564209 C -4.551784038543701 2.524899959564209 -5.639014720916748 1.669345498085022 -5.92352819442749 0.4999999701976776 L -0.5708650350570679 0.4999999701976776 C -0.8553767800331116 1.669338822364807 -1.942602515220642 2.524899959564209 -3.24719762802124 2.524899959564209 Z"/>
                    <path class="cls-68" d="M -3.24719762802124 2.024899959564209 C -2.428511142730713 2.024899959564209 -1.714534163475037 1.617265105247498 -1.321249485015869 1 L -5.173145771026611 1 C -4.779860973358154 1.617265105247498 -4.065884113311768 2.024899959564209 -3.24719762802124 2.024899959564209 M -3.24719762802124 3.024899959564209 C -5.007997512817383 3.024899959564209 -6.434707641601563 1.696659922599792 -6.494247436523438 -2.021789491379877e-08 L -0.0001476280158385634 -2.021789491379877e-08 C -0.05966762825846672 1.696200013160706 -1.485937595367432 3.024899959564209 -3.24719762802124 3.024899959564209 Z"/>
                  </g>
                  <path id="Combined_Shape-10" data-name="Combined Shape" class="cls-12" d="M0,2.814A11.985,11.985,0,0,0-.2.606,12.254,12.254,0,0,0-4.021,0,12.334,12.334,0,0,0-16.33,12.359a12.545,12.545,0,0,0,.086,1.466,11.747,11.747,0,0,0,4.423.859A11.845,11.845,0,0,0,0,2.814Z" transform="translate(14.623 -5.384) rotate(180)"/>
                  <path id="Combined_Shape-11" data-name="Combined Shape" class="cls-12" d="M-9.338,13.756h0A12.247,12.247,0,0,0-2.66,9.489,12.139,12.139,0,0,0,0,1.856,12.506,12.506,0,0,0-.138,0,30.489,30.489,0,0,1-5.521.8a13.31,13.31,0,0,1,.4,3.253,13.287,13.287,0,0,1-4.217,9.7Z" transform="translate(10.48 -6.22) rotate(180)"/>
                  <rect id="Rectangle_2" data-name="Rectangle 2" class="cls-52" width="4.387" height="3.916" transform="translate(18.279 -34.507) rotate(180)"/>
                </g>
                <path id="Path_22" data-name="Path 22" class="cls-56" d="M3.9,2.2,1.219,4.65A2.265,2.265,0,0,1,0,2.447C0,.734,1.95,0,1.95,0V.979Z" transform="translate(11.83 36.954)"/>
                <path id="Path_22-2" data-name="Path 22" class="cls-56" d="M-3.9,2.2-1.219,4.65A2.886,2.886,0,0,0,0,2.2C0,.489-1.95,0-1.95,0V.979Z" transform="translate(20.117 36.954)"/>
                <g id="Oval_20" data-name="Oval 20" class="cls-57" transform="translate(4.519 19.089)">
                  <ellipse class="cls-65" cx="4.631" cy="4.65" rx="4.631" ry="4.65"/>
                  <ellipse class="cls-66" cx="4.631" cy="4.65" rx="3.631" ry="3.65"/>
                </g>
                <rect id="Rectangle_10" data-name="Rectangle 10" class="cls-58" width="5.606" height="0.979" transform="translate(13.049 23.494)"/>
                <path id="Rectangle_10_Copy" data-name="Rectangle 10 Copy" class="cls-58" d="M0,0,3.656.979l-.244.979L0,.979Z" transform="translate(26.454 23.494)"/>
                <path id="Rectangle_10_Copy-2" data-name="Rectangle 10 Copy" class="cls-58" d="M0,0-3.656.979l.244.979L0,.979Z" transform="translate(5.25 23.494)"/>
                <g id="Oval_20_Copy" data-name="Oval 20 Copy" class="cls-57" transform="translate(17.923 19.089)">
                  <ellipse class="cls-65" cx="4.631" cy="4.65" rx="4.631" ry="4.65"/>
                  <ellipse class="cls-66" cx="4.631" cy="4.65" rx="3.631" ry="3.65"/>
                </g>
              </g>
            </g>
          </g>
        </g>
        <g id="Ilustrações_Features_Boletim_Copy-2" data-name="Ilustrações / Features / Boletim Copy" transform="translate(10.711 23.182)">
          <g id="Group_3-8" data-name="Group 3" transform="translate(0)">
            <g id="Group-5" data-name="Group" transform="translate(12.77 36.297)">
              <g id="Oval_13-2" data-name="Oval 13" class="cls-51" transform="translate(0.279 0.168)">
                <ellipse class="cls-65" cx="2.925" cy="1.346" rx="2.925" ry="1.346"/>
                <ellipse class="cls-66" cx="2.925" cy="1.346" rx="3.425" ry="1.846"/>
              </g>
            </g>
            <g id="Group_2-4" data-name="Group 2" transform="translate(32.059) rotate(180)">
              <ellipse id="Oval_11-7" data-name="Oval 11" class="cls-52" cx="3.9" cy="2.57" rx="3.9" ry="2.57" transform="matrix(-0.883, 0.469, -0.469, -0.883, 9.524, -27.583)"/>
              <ellipse id="Oval_11-8" data-name="Oval 11" class="cls-52" cx="3.9" cy="2.57" rx="3.9" ry="2.57" transform="matrix(-0.883, -0.469, 0.469, -0.883, 29.533, -23.922)"/>
              <g id="Group_9-3" data-name="Group 9" transform="translate(9.505)">
                <ellipse id="Oval_18-5" data-name="Oval 18" class="cls-12" cx="6.093" cy="3.181" rx="6.093" ry="3.181" transform="translate(12.186 0) rotate(180)"/>
                <g id="Group_9-4" data-name="Group 9" class="cls-53">
                  <ellipse id="Oval_18-6" data-name="Oval 18" class="cls-54" cx="6.093" cy="1.224" rx="6.093" ry="1.224" transform="translate(12.186 -2.937) rotate(180)"/>
                </g>
              </g>
              <path id="Oval-4" data-name="Oval" class="cls-12" d="M-15.111,30.836c-8.345,0-15.111-7.089-15.111-16.886S-23.456,0-15.111,0,0,4.006,0,13.949-6.765,30.836-15.111,30.836Z" transform="translate(0.975 -3.671) rotate(180)"/>
              <path id="Oval-5" data-name="Oval" class="cls-52" d="M-12.673,26.92a13.382,13.382,0,0,1-11.318-6.244c-1.321-2.085-1.356-4.561-1.356-7.216C-25.347,6.026-20.077,0-12.673,0S0,6.026,0,13.46c0,2.639-.025,5.1-1.332,7.177A13.383,13.383,0,0,1-12.673,26.92Z" transform="translate(3.412 -8.321) rotate(180)"/>
              <path id="Combined_Shape-12" data-name="Combined Shape" class="cls-12" d="M0,13.865A13.932,13.932,0,0,0-12.348,0a16.165,16.165,0,0,0-.082,1.628A15.9,15.9,0,0,0-.371,17.079,14.042,14.042,0,0,0,0,13.865Z" transform="translate(1.706 -5.714) rotate(180)"/>
              <ellipse id="Oval_9-3" data-name="Oval 9" class="cls-55" cx="1.462" cy="1.468" rx="1.462" ry="1.468" transform="translate(24.372 -22.27) rotate(180)"/>
              <ellipse id="Oval_9-4" data-name="Oval 9" class="cls-55" cx="1.462" cy="1.468" rx="1.462" ry="1.468" transform="translate(10.967 -22.27) rotate(180)"/>
              <g id="Combined_Shape-13" data-name="Combined Shape" class="cls-34" transform="translate(12.838 -30.102) rotate(180)">
                <path class="cls-65" d="M -3.24719762802124 2.524899959564209 C -4.551784038543701 2.524899959564209 -5.639014720916748 1.669345498085022 -5.92352819442749 0.4999999701976776 L -0.5708650350570679 0.4999999701976776 C -0.8553767800331116 1.669338822364807 -1.942602515220642 2.524899959564209 -3.24719762802124 2.524899959564209 Z"/>
                <path class="cls-68" d="M -3.24719762802124 2.024899959564209 C -2.428511142730713 2.024899959564209 -1.714534163475037 1.617265105247498 -1.321249485015869 1 L -5.173145771026611 1 C -4.779860973358154 1.617265105247498 -4.065884113311768 2.024899959564209 -3.24719762802124 2.024899959564209 M -3.24719762802124 3.024899959564209 C -5.007997512817383 3.024899959564209 -6.434707641601563 1.696659922599792 -6.494247436523438 -2.021789491379877e-08 L -0.0001476280158385634 -2.021789491379877e-08 C -0.05966762825846672 1.696200013160706 -1.485937595367432 3.024899959564209 -3.24719762802124 3.024899959564209 Z"/>
              </g>
              <path id="Combined_Shape-14" data-name="Combined Shape" class="cls-12" d="M0,2.814A11.985,11.985,0,0,0-.2.606,12.254,12.254,0,0,0-4.021,0,12.334,12.334,0,0,0-16.33,12.359a12.545,12.545,0,0,0,.086,1.466,11.747,11.747,0,0,0,4.423.859A11.845,11.845,0,0,0,0,2.814Z" transform="translate(14.623 -5.384) rotate(180)"/>
              <path id="Combined_Shape-15" data-name="Combined Shape" class="cls-12" d="M-9.338,13.756h0A12.247,12.247,0,0,0-2.66,9.489,12.139,12.139,0,0,0,0,1.856,12.506,12.506,0,0,0-.138,0,30.489,30.489,0,0,1-5.521.8a13.31,13.31,0,0,1,.4,3.253,13.287,13.287,0,0,1-4.217,9.7Z" transform="translate(10.48 -6.22) rotate(180)"/>
              <rect id="Rectangle_2-2" data-name="Rectangle 2" class="cls-52" width="4.387" height="3.916" transform="translate(18.279 -34.507) rotate(180)"/>
            </g>
            <path id="Path_22-3" data-name="Path 22" class="cls-56" d="M3.645,3.326,1.219,4.65A2.265,2.265,0,0,1,0,2.447C0,.734,1.95,0,1.95,0V.979Z" transform="translate(11.83 36.469)"/>
            <path id="Path_22-4" data-name="Path 22" class="cls-56" d="M-3.672,3.326-1.219,4.65A2.886,2.886,0,0,0,0,2.2C0,.489-1.95,0-1.95,0V.979Z" transform="translate(20.117 36.469)"/>
            <g id="Oval_20-2" data-name="Oval 20" class="cls-59" transform="translate(4.519 19.089)">
              <ellipse class="cls-65" cx="4.631" cy="4.65" rx="4.631" ry="4.65"/>
              <ellipse class="cls-66" cx="4.631" cy="4.65" rx="4.131" ry="4.15"/>
            </g>
            <rect id="Rectangle_10-2" data-name="Rectangle 10" class="cls-58" width="5.606" height="0.979" transform="translate(13.049 23.494)"/>
            <path id="Rectangle_10_Copy-3" data-name="Rectangle 10 Copy" class="cls-58" d="M0,0,3.656.979l-.244.979L0,.979Z" transform="translate(26.454 23.494)"/>
            <path id="Rectangle_10_Copy-4" data-name="Rectangle 10 Copy" class="cls-58" d="M0,0-3.656.979l.244.979L0,.979Z" transform="translate(5.25 23.494)"/>
            <g id="Oval_20_Copy-2" data-name="Oval 20 Copy" class="cls-59" transform="translate(17.923 19.089)">
              <ellipse class="cls-65" cx="4.631" cy="4.65" rx="4.631" ry="4.65"/>
              <ellipse class="cls-66" cx="4.631" cy="4.65" rx="4.131" ry="4.15"/>
            </g>
          </g>
        </g>
        <g id="Group_4-5" data-name="Group 4" transform="translate(50.925 0.758) rotate(19)">
          <g id="Group-6" data-name="Group" transform="translate(59.217 0) rotate(180)">
            <g class="cls-70" transform="matrix(-1, 0.07, -0.07, -1, 143.27, 129.08)">
              <path id="Combined_Shape-16" data-name="Combined Shape" class="cls-33" d="M-48.594,42.322c7.256,0,10.9-.606,15.8-4.66a29.7,29.7,0,0,0,8.5,1.222c13.419,0,24.3-8.7,24.3-19.442S-10.878,0-24.3,0s-24.3,8.7-24.3,19.442c0,5.631,2.992,10.7,7.772,14.253C-42.6,37.044-43.57,38.972-48.594,42.322Z" transform="matrix(0.98, -0.19, 0.19, 0.98, 122.62, 138.08)"/>
            </g>
            <path id="Combined_Shape-17" data-name="Combined Shape" class="cls-60" d="M-13.755,7.167A2.425,2.425,0,0,0-16.179,4.74,2.425,2.425,0,0,0-18.6,7.167a2.425,2.425,0,0,0,2.425,2.426A2.425,2.425,0,0,0-13.755,7.167ZM-6.878,4.8A2.425,2.425,0,0,0-9.3,2.37,2.426,2.426,0,0,0-11.727,4.8,2.426,2.426,0,0,0-9.3,7.223,2.426,2.426,0,0,0-6.878,4.8ZM0,2.426A2.425,2.425,0,0,0-2.425,0,2.425,2.425,0,0,0-4.849,2.426,2.425,2.425,0,0,0-2.425,4.853,2.425,2.425,0,0,0,0,2.426Z" transform="translate(21.367 -21.456) rotate(180)"/>
          </g>
        </g>
      </g>
      <g id="Group_8" data-name="Group 8" transform="translate(216.141 73.507) rotate(-30)">
        <rect id="Rectangle-3" data-name="Rectangle" class="cls-61" width="145.095" height="92.49" rx="3"/>
        <path id="BOLETIM-2" data-name="BOLETIM" class="cls-60" d="M10.98,8.564a4.232,4.232,0,0,1-2.2-.573,3.95,3.95,0,0,1-1.5-1.562,4.615,4.615,0,0,1-.527-2.2,4.54,4.54,0,0,1,.31-1.663A4.089,4.089,0,0,1,7.92,1.222,3.929,3.929,0,0,1,9.262.329a4.655,4.655,0,0,1,3.435,0,3.929,3.929,0,0,1,1.342.894A4.122,4.122,0,0,1,14.9,2.568a4.423,4.423,0,0,1,.311,1.663,4.613,4.613,0,0,1-.311,1.7,4.236,4.236,0,0,1-.859,1.377,3.927,3.927,0,0,1-1.342.916A4.374,4.374,0,0,1,10.98,8.564Zm0-6.709a2.033,2.033,0,0,0-1.566.677,2.437,2.437,0,0,0-.616,1.7A2.607,2.607,0,0,0,9.414,6a2.093,2.093,0,0,0,3.135,0,2.6,2.6,0,0,0,.618-1.77,2.43,2.43,0,0,0-.618-1.7A2.044,2.044,0,0,0,10.98,1.855ZM47.205,8.422h-.734a.589.589,0,0,1-.646-.616l-.2-3.11c-.015-.192-.022-.4-.022-.625s0-.407.012-.557l.011-.21H45.6c-.177.572-.33,1.041-.453,1.392l-.668,1.883a.707.707,0,0,1-.713.509h-.635a.706.706,0,0,1-.712-.509L41.754,4.7,41.3,3.3h-.022c.015.262.022.509.022.733s-.007.453-.022.66l-.205,3.11a.588.588,0,0,1-.646.616h-.745a.592.592,0,0,1-.458-.169.6.6,0,0,1-.139-.4.758.758,0,0,1,.005-.091L39.66.752A.584.584,0,0,1,40.3.141h1.022a.675.675,0,0,1,.7.52L43.03,3.637c.058.168.12.363.185.58s.121.411.163.563l.061.226h.023c.148-.551.286-1.011.409-1.369L44.875.662a.673.673,0,0,1,.7-.52h1.016a.587.587,0,0,1,.646.611l.553,7.008a.757.757,0,0,1,.005.091.581.581,0,0,1-.132.4A.6.6,0,0,1,47.205,8.422Zm-10.057,0h-.734a.56.56,0,0,1-.624-.639V.775a.557.557,0,0,1,.624-.634h.734a.558.558,0,0,1,.625.634V7.783A.56.56,0,0,1,37.148,8.422Zm-5.279,0h-.735a.557.557,0,0,1-.618-.639v-5.9H28.681a.561.561,0,0,1-.625-.64V.775a.558.558,0,0,1,.625-.634h5.644a.558.558,0,0,1,.625.634v.464a.561.561,0,0,1-.625.64H32.492v5.9A.56.56,0,0,1,31.868,8.422Zm-4.822,0H23.064a.56.56,0,0,1-.625-.639V.775a.558.558,0,0,1,.625-.634h3.821a.558.558,0,0,1,.625.634v.464a.561.561,0,0,1-.625.64H24.422v1.5h1.845a.558.558,0,0,1,.618.64v.464a.555.555,0,0,1-.618.634H24.422V6.686h2.624a.555.555,0,0,1,.619.634v.464A.558.558,0,0,1,27.046,8.422Zm-6.036,0H16.972a.56.56,0,0,1-.624-.639V.775a.557.557,0,0,1,.624-.634h.734a.558.558,0,0,1,.625.634V6.686H21.01a.557.557,0,0,1,.624.634v.464A.56.56,0,0,1,21.01,8.422Zm-18.032,0H.624A.56.56,0,0,1,0,7.783V.775A.557.557,0,0,1,.624.141H2.977a3.269,3.269,0,0,1,2,.563,1.892,1.892,0,0,1,.752,1.6,2.223,2.223,0,0,1-.246,1.019,1.772,1.772,0,0,1-.693.741V4.09a1.641,1.641,0,0,1,.737.45,1.788,1.788,0,0,1,.411.67,2.342,2.342,0,0,1,.116.747,2.6,2.6,0,0,1-.166.948,1.976,1.976,0,0,1-.454.7,2.505,2.505,0,0,1-.681.467,3.267,3.267,0,0,1-.837.268A5.385,5.385,0,0,1,2.977,8.422ZM1.983,4.972V6.686H3.17A.809.809,0,0,0,3.8,6.437a.9.9,0,0,0,.224-.622.87.87,0,0,0-.216-.606.808.808,0,0,0-.629-.238Zm0-3.093V3.349H3a.65.65,0,0,0,.533-.221.839.839,0,0,0,.18-.544.716.716,0,0,0-.185-.509.734.734,0,0,0-.561-.2Z" transform="translate(49.503 13.702)"/>
        <rect id="Rectangle_14" data-name="Rectangle 14" class="cls-60" width="134.853" height="3.426" rx="1" transform="translate(5.121 29.117)"/>
        <path id="Path_38-3" data-name="Path 38" class="cls-3" d="M12.584.5a1.577,1.577,0,0,1,2.3,0,1.761,1.761,0,0,1,0,2.41l-8.2,8.581a1.577,1.577,0,0,1-2.3,0L.477,7.4a1.761,1.761,0,0,1,0-2.41,1.577,1.577,0,0,1,2.3,0L5.536,7.876Z" transform="translate(15.363 44.532)"/>
        <path id="Path_38_Copy_3" data-name="Path 38 Copy 3" class="cls-3" d="M12.584.5a1.577,1.577,0,0,1,2.3,0,1.761,1.761,0,0,1,0,2.41l-8.2,8.581a1.577,1.577,0,0,1-2.3,0L.477,7.4a1.761,1.761,0,0,1,0-2.41,1.577,1.577,0,0,1,2.3,0L5.536,7.876Z" transform="translate(15.363 66.798)"/>
        <path id="Path_38_Copy" data-name="Path 38 Copy" class="cls-3" d="M12.584.5a1.577,1.577,0,0,1,2.3,0,1.761,1.761,0,0,1,0,2.41l-8.2,8.581a1.577,1.577,0,0,1-2.3,0L.477,7.4a1.761,1.761,0,0,1,0-2.41,1.577,1.577,0,0,1,2.3,0L5.536,7.876Z" transform="translate(66.573 44.532)"/>
        <path id="Path_38_Copy_4" data-name="Path 38 Copy 4" class="cls-3" d="M12.584.5a1.577,1.577,0,0,1,2.3,0,1.761,1.761,0,0,1,0,2.41l-8.2,8.581a1.577,1.577,0,0,1-2.3,0L.477,7.4a1.761,1.761,0,0,1,0-2.41,1.577,1.577,0,0,1,2.3,0L5.536,7.876Z" transform="translate(66.573 66.798)"/>
        <path id="Path_38_Copy_2" data-name="Path 38 Copy 2" class="cls-3" d="M12.584.5a1.577,1.577,0,0,1,2.3,0,1.761,1.761,0,0,1,0,2.41l-8.2,8.581a1.577,1.577,0,0,1-2.3,0L.477,7.4a1.761,1.761,0,0,1,0-2.41,1.577,1.577,0,0,1,2.3,0L5.536,7.876Z" transform="translate(114.369 44.532)"/>
        <path id="Path_38_Copy_5" data-name="Path 38 Copy 5" class="cls-3" d="M12.584.5a1.577,1.577,0,0,1,2.3,0,1.761,1.761,0,0,1,0,2.41l-8.2,8.581a1.577,1.577,0,0,1-2.3,0L.477,7.4a1.761,1.761,0,0,1,0-2.41,1.577,1.577,0,0,1,2.3,0L5.536,7.876Z" transform="translate(114.369 66.798)"/>
      </g>
      <path id="Path_40-2" data-name="Path 40" class="cls-62" d="M.141,12.13c1.386,6.795,2.425,10.431,13.578,11.887s15.032-3.882,15.032-8.735S27.3-5.1,7.415,1.693C4.021,3.149-.9,7.035.141,12.13Z" transform="translate(263.056 220.832)"/>
      <path id="Path_41" data-name="Path 41" class="cls-62" d="M22.306,12.618s-.97,12.618-11.638,12.618S0,7.28,0,5.338.97,0,11.153,0,22.306,12.618,22.306,12.618Z" transform="translate(261.742 183.7)"/>
      <g id="Group_26" data-name="Group 26" transform="translate(108.509 217.672)">
        <path id="Path_38-4" data-name="Path 38" class="cls-13" d="M.038,85.934c.97,22.809,11.153,67.943,43.643,59.692S64.532,91.758,58.228,80.111s-8.244-15.044-6.3-19.9,8.244-22.324,8.244-22.324,20.367-5.824,22.791-25.236C84.056,3.868,78.628-.439,73.746.035,67.84.609,61.69,7.3,55.319,10.227c-11.638,5.338-17.942,8.735-17.942,8.735A95.63,95.63,0,0,0,22.829,36.918C16.736,46.984-.931,63.125.038,85.934Z" transform="translate(0.447 0.45)"/>
        <g id="Group_26-2" data-name="Group 26" class="cls-63">
          <path id="Path_42" data-name="Path 42" class="cls-64" d="M7.716,49.135C3.837,43.312-2.952,37,1.412,23.414S16.445,7.884,22.749,3.031,36.326-.366,37.781,4,11.6,54.959,7.716,49.135Z" transform="translate(47.079 20.749)"/>
        </g>
      </g>
    </g>
  </g>
</svg>
