<svg xmlns="http://www.w3.org/2000/svg" xmlns:xlink="http://www.w3.org/1999/xlink" viewBox="0 0 484 382"><defs><style>.a,.aa,.c,.j,.s{fill:#fff;}.a,.n{stroke:#ededed;}.a,.aa,.ae,.aj,.an,.ap,.as,.av,.aw,.ax,.ay,.ba,.bb,.bc,.c,.j,.n,.t,.z{stroke-miterlimit:10;}.a,.aj,.an,.ap,.c,.n{stroke-width:2px;}.b{fill:#88d05c;}.c{stroke:#ebebeb;}.d{fill:#8b5d3d;}.e{fill:rgba(0,0,0,0);}.f{fill:#206478;}.g{fill:#7ab3bd;}.h{fill:#6f818b;}.i{fill:#f6cd9f;}.k{clip-path:url(#a);}.l{fill:#c7c7c7;opacity:0.5;}.be,.m{fill:#ededed;}.aj,.n,.q{fill:#fbca9b;}.o{fill:#fff68b;}.p{fill:#832a0d;}.am,.r{fill:#1e1619;}.t{fill:#db1f20;}.u{fill:#bd10e0;}.v{fill:#cfc122;}.w{fill:#8b572a;}.av,.bb,.x,.z{fill:#fbddb3;}.y{clip-path:url(#b);}.z{stroke:#74ab51;}.ba,.z{stroke-width:3px;}.aa,.ae{stroke:#979797;}.ab,.bh{fill:#74ab51;}.ac{fill:#ba7510;}.ad{fill:#0f0f0f;}.ae,.an,.ap,.aw,.ax,.ay,.ba,.bf{fill:none;}.af{fill:#ff9300;}.ag{fill:#efefef;}.ah{fill:#754e35;}.ai{clip-path:url(#c);}.aj{stroke:#d6d6d6;}.ak{fill:#2f72c1;}.al{clip-path:url(#d);}.am{opacity:0.2;}.an{stroke:#c4bb4b;}.ao{fill:#c4bb4b;}.ap{stroke:red;}.aq{fill:red;}.ar{fill:#ec4d50;}.as,.at{fill:#d9b400;}.as{stroke:#d9b400;}.au{fill:#e96583;}.av,.aw,.ax,.ay,.ba,.bc{stroke:#bf4662;}.aw,.ay,.bc{stroke-linecap:round;}.ay,.bc{stroke-linejoin:round;}.az{fill:#e27ff7;}.bb{stroke:#dbbb8e;}.bc{fill:#fda0b5;}.bd,.be,.bg,.bh,.bi{stroke:none;}.bg{fill:#ab130e;}.bi{fill:#ebebeb;}</style><clipPath id="a"><path class="a" d="M23.07,9.627c-4.465,5.924-5.954,5.924-8.186,18.513C13.709,34.767,5.209,73.31,5.209,73.31L0,91.823l16.373,5.924,3.721-18.513,8.186-34.8s2.977,17.681,2.977,28.139S21.582,88.861,21.582,113.3v61.462H95.259s-.744-42.442-.744-61.462S84.84,84.418,84.84,71.089a184.979,184.979,0,0,1,2.233-26.658L98.236,94.785,116.1,91.823,101.957,28.14S97.491,16.292,93.026,9.627C90.816,6.329,74.623-.059,58.42,0,41.881.061,25.326,6.635,23.07,9.627Z" transform="translate(0 0)"/></clipPath><clipPath id="b"><path class="b" d="M77.975,36.121l-4.456,70.921a16.6,16.6,0,0,0,0,6.649c.743,3.694-2.228,3.694-2.228,5.91s2.228,2.216,0,6.649a3.955,3.955,0,0,0,2.228,5.91s-11.882,2.955-16.338,0,2.97-4.433,2.97-9.6-2.97-6.649-2.97-10.343,2.97-5.171,2.97-11.081S56.439,82.663,50.5,82.663,40.844,96.7,40.844,101.132s.743,8.126,2.228,9.6-2.228,6.649-2.228,11.82,3.713,2.216,3.713,8.126-16.338,1.478-16.338,1.478a8.827,8.827,0,0,0,2.228-5.91c0-3.694-2.228-.739-2.228-3.694s2.228.739,0-8.865S23.764,79.708,23.764,70.1V36.121S19.308,48.68,15.595,48.68,0,23.562,0,23.562l11.139-5.91,4.456,7.388s3.713-9.6,5.941-15.514S29.7,2.876,37.131,1.4s21.536-2.216,28.962,0S77.975,5.831,79.46,9.525,95.8,64.194,95.8,64.194L87.629,67.03Z" transform="translate(0 0)"/></clipPath><clipPath id="c"><path class="c" d="M23.07,9.6c-4.465,5.907-5.954,5.907-8.186,18.461C13.709,34.67,5.209,73.106,5.209,73.106L0,91.567l16.373,5.907,3.721-18.461L28.28,44.307s2.977,17.632,2.977,28.061-9.675,16.246-9.675,40.614v98.212H74.421l5.209-19.938,8.186,19.938h7.442s-.744-79.245-.744-98.212S84.84,84.182,84.84,70.89a183.962,183.962,0,0,1,2.233-26.584L98.236,94.52,116.1,91.567l-14.14-63.506S97.491,16.246,93.026,9.6C90.816,6.311,74.623-.059,58.42,0,41.881.061,25.326,6.616,23.07,9.6Z"/></clipPath><clipPath id="d"><ellipse class="d" cx="18.605" cy="9.6" rx="18.605" ry="9.6" transform="translate(37.21 19.199) rotate(180)"/></clipPath></defs><g transform="translate(-725 -152)"><rect class="e" width="484" height="382" transform="translate(725 152)"/><g transform="translate(725 157.597)"><g transform="translate(39.443 272.505)"><g transform="translate(2.977)"><path class="f" d="M0,8.886S0,31.1,0,45.171,0,77.753,0,77.753H16.373s2.233-24.437,2.233-37.766V0Z" transform="translate(2.233)"/><rect class="g" width="22.326" height="13.329" rx="3" transform="translate(0 75.531)"/></g><g transform="translate(0 84.417)"><path class="h" d="M13.768,14.07s13.768-.06,13.768-5.045S21.372,0,13.768,0,0,4.041,0,9.025,13.768,14.07,13.768,14.07Z"/><rect class="h" width="27.536" height="7.868" transform="translate(0 8.423)"/></g><g transform="translate(29.024)"><g transform="translate(2.977)"><path class="f" d="M0,8.886S0,31.1,0,45.171,0,77.753,0,77.753H16.373s2.233-24.437,2.233-37.766V0Z" transform="translate(2.233)"/><rect class="g" width="22.326" height="13.329" rx="3" transform="translate(0 75.531)"/></g><g transform="translate(0 84.417)"><path class="h" d="M13.768,14.07s13.768-.06,13.768-5.045S21.372,0,13.768,0,0,4.041,0,9.025,13.768,14.07,13.768,14.07Z"/><rect class="h" width="27.536" height="7.868" transform="translate(0 8.423)"/></g></g></g><g transform="translate(0 108.113)"><path class="i" d="M5.21,49.614c-2.67-1-3.853-5.124-4.273-7.092A10.94,10.94,0,0,1,0,37.765c0-5.513,3.483-8.29,6.992-9.688A1.784,1.784,0,0,1,6.7,27.4C5.953,23.7,12.651,0,12.651,0L25.3,2.962s-2.977,11.107-4.466,16.291A42.54,42.54,0,0,0,19.349,29.62l-.161.019a23.446,23.446,0,0,1,.905,6.646q0,.144,0,.285l2.238,4.9s0,2.962-3.721,6.664a9.93,9.93,0,0,1-7.2,2.63A18.338,18.338,0,0,1,5.21,49.614Z" transform="translate(0 90.342)"/><path class="i" d="M20.093,49.614c2.67-1,3.853-5.124,4.273-7.092a10.94,10.94,0,0,0,.937-4.757c0-5.513-3.483-8.29-6.992-9.688a1.784,1.784,0,0,0,.294-.679C19.35,23.7,12.652,0,12.652,0L0,2.962S2.977,14.069,4.466,19.253A42.54,42.54,0,0,1,5.955,29.62l.161.019a23.446,23.446,0,0,0-.905,6.646q0,.144,0,.285l-2.238,4.9s0,2.962,3.721,6.664a9.93,9.93,0,0,0,7.2,2.63A18.338,18.338,0,0,0,20.093,49.614Z" transform="translate(111.631 90.342)"/><g class="j" transform="translate(10.419 0)"><path class="bd" d="M 94.24140930175781 173.7593841552734 L 22.58206748962402 173.7593841552734 L 22.58206748962402 113.2975387573242 C 22.58206748962402 98.73667144775391 26.04549980163574 90.92562866210938 28.82840728759766 84.64935302734375 C 30.66804504394531 80.50044250488281 32.25679397583008 76.9173583984375 32.25679397583008 72.56980895996094 C 32.25679397583008 62.14896774291992 29.29597663879395 44.44226455688477 29.26606750488281 44.26462936401367 L 27.30652236938477 44.20169448852539 L 19.12022590637207 79.00540161132813 L 19.11647605895996 79.02128601074219 L 19.11327171325684 79.03728485107422 L 15.62102890014648 96.41156005859375 L 1.214442610740662 91.19889831542969 L 6.17209005355835 73.58119964599609 L 6.179839611053467 73.55362701416016 L 6.18602180480957 73.52565002441406 C 6.271044254302979 73.1400146484375 14.70336246490479 34.88571929931641 15.86881732940674 28.31417274475098 C 17.70120429992676 17.98237800598145 18.9387264251709 16.4381046295166 21.92854499816895 12.70719623565674 C 22.50052261352539 11.99342346191406 23.14883995056152 11.18440055847168 23.86906623840332 10.22887802124023 C 24.04038619995117 10.00158214569092 24.81999969482422 9.152309417724609 27.65811347961426 7.767673492431641 C 29.86499977111816 6.691014289855957 32.64133834838867 5.619491577148438 35.6870002746582 4.668923377990723 C 40.02786254882813 3.314105272293091 48.75397491455078 1.035968899726868 58.42411422729492 1.000423431396484 C 58.49804306030273 1.000150799751282 58.57188415527344 1.000014424324036 58.64581680297852 1.000014424324036 C 68.169677734375 1.000014424324036 76.58718109130859 3.215287208557129 80.75706481933594 4.535809993743896 C 83.73640441894531 5.479287147521973 86.42738342285156 6.548627853393555 88.53907012939453 7.628241539001465 C 91.20813751220703 8.992810249328613 91.98520660400391 9.869854927062988 92.19541168212891 10.1835823059082 C 96.37490844726563 16.4216480255127 100.6321563720703 27.47288703918457 100.9961853027344 28.42704772949219 L 114.8916320800781 91.00910949707031 L 99.0068359375 93.64339447021484 L 88.04879760742188 44.21421813964844 L 86.08625030517578 44.26544570922852 C 86.06377410888672 44.39955902099609 83.83988189697266 57.8299446105957 83.83988189697266 71.08880615234375 C 83.83988189697266 77.34397125244141 85.90890502929688 82.85762786865234 88.09941101074219 88.69503784179688 C 89.40560913085938 92.17592620849609 90.75629425048828 95.77532958984375 91.78601837158203 99.79689788818359 C 92.94918060302734 104.3395156860352 93.51458740234375 108.7556076049805 93.51458740234375 113.2975387573242 C 93.51458740234375 130.47265625 94.12887573242188 167.1807250976563 94.24140930175781 173.7593841552734 Z"/><path class="be" d="M 93.22428131103516 172.7593994140625 C 93.07710266113281 164.0616455078125 92.51460266113281 129.7385406494141 92.51460266113281 113.2975540161133 C 92.51460266113281 108.8403930664063 91.95941925048828 104.5054473876953 90.81728363037109 100.0449752807617 C 89.80099487304688 96.07589721679688 88.45999908447266 92.5023193359375 87.16315460205078 89.04637145996094 C 84.93986511230469 83.12160491943359 82.83986663818359 77.52542114257813 82.83986663818359 71.08881378173828 C 82.83986663818359 57.74678802490234 85.00768280029297 44.65121078491211 85.09996795654297 44.10026168823242 L 86.79904937744141 33.95663070678711 L 89.02510070800781 43.9977912902832 L 99.778076171875 92.50183868408203 L 113.6865844726563 90.19528961181641 L 100.0358963012695 28.71556854248047 C 99.5391845703125 27.41935920715332 95.4027099609375 16.76712417602539 91.36465454101563 10.74021053314209 C 90.8662109375 9.996289253234863 87.54373168945313 7.733921051025391 80.45515441894531 5.489131450653076 C 76.34026336669922 4.186052799224854 68.03515625 2 58.64578628540039 2 C 58.57320785522461 2 58.50073623657227 2.000131607055664 58.42778778076172 2.000394821166992 C 48.88865661621094 2.035473823547363 40.27212905883789 4.285447597503662 35.98492050170898 5.623499870300293 C 32.98662948608398 6.559289455413818 30.25889205932617 7.611526489257813 28.09657669067383 8.666420936584473 C 25.28586578369141 10.03768444061279 24.69155120849609 10.79905223846436 24.6676025390625 10.8308162689209 C 23.9384708404541 11.79818439483643 23.28523445129395 12.61334228515625 22.70889282226563 13.33252620697021 C 21.2366828918457 15.16965770721436 20.26410293579102 16.38331604003906 19.4194450378418 18.35147285461426 C 18.50186538696289 20.48944664001465 17.73447227478027 23.52118492126465 16.85344505310059 28.48884201049805 C 15.68431377410889 35.08100128173828 7.509944915771484 72.16555023193359 7.162550449371338 73.74099731445313 L 7.150208473205566 73.79694366455078 L 7.134708404541016 73.85208129882813 L 2.428893566131592 90.57485961914063 L 14.86942291259766 95.07616424560547 L 18.13286590576172 78.8402099609375 L 18.13931274414063 78.80821228027344 L 18.14678764343262 78.77642059326172 L 26.33310317993164 43.97273635864258 L 28.60491943359375 34.314208984375 L 30.2522087097168 44.09860610961914 C 30.37489318847656 44.82728958129883 33.25678634643555 62.06560516357422 33.25678634643555 72.56981658935547 C 33.25678634643555 77.12910461425781 31.62826156616211 80.80191802978516 29.74257659912109 85.0546875 C 26.9979190826416 91.24471282958984 23.58207702636719 98.94841766357422 23.58207702636719 113.2975540161133 L 23.58207702636719 172.7593994140625 L 93.22428131103516 172.7593994140625 M 95.25881195068359 174.7593994140625 L 21.58207702636719 174.7593994140625 C 21.58207702636719 174.7593994140625 21.58207702636719 137.7341766357422 21.58207702636719 113.2975540161133 C 21.58207702636719 88.86089324951172 31.25678634643555 83.02763366699219 31.25678634643555 72.56981658935547 C 31.25678634643555 62.11199951171875 28.27997207641602 44.43065643310547 28.27997207641602 44.43065643310547 L 20.09365653991699 79.23434448242188 L 16.37260246276855 97.7469482421875 L -2.261513145640492e-06 91.82292175292969 L 5.209471225738525 73.31031799316406 C 5.209471225738525 73.31031799316406 13.70883941650391 34.76665878295898 14.88418197631836 28.13957977294922 C 17.11681365966797 15.55099964141846 18.60523414611816 15.55099964141846 23.07049751281738 9.626974105834961 C 25.3260498046875 6.634526252746582 41.88113021850586 0.06123686581850052 58.42044448852539 0.0004210751212667674 C 58.49560546875 0.0001447079266654328 58.57064056396484 7.321006251004292e-06 58.64579772949219 7.321006251004292e-06 C 74.77313995361328 7.321006251004292e-06 90.82672119140625 6.344245910644531 93.02618408203125 9.626974105834961 C 97.49144744873047 16.29150009155273 101.9567108154297 28.13957977294922 101.9567108154297 28.13957977294922 L 116.0966796875 91.82292175292969 L 98.23565673828125 94.78495025634766 L 87.07249450683594 44.43065643310547 C 87.07249450683594 44.43065643310547 84.83986663818359 57.75973510742188 84.83986663818359 71.08881378173828 C 84.83986663818359 84.41789245605469 94.51460266113281 94.27747344970703 94.51460266113281 113.2975540161133 C 94.51460266113281 132.3176116943359 95.25881195068359 174.7593994140625 95.25881195068359 174.7593994140625 Z"/></g><g class="k" transform="translate(10.419 0)"><rect class="l" width="59.537" height="4.443" transform="translate(27.536 19.254)"/><rect class="l" width="58.048" height="4.443" transform="translate(29.024 28.14)"/><path class="m" d="M3.721,33.323,0,2.222,4.465,0l.744,35.544Z" transform="translate(24.559 7.405)"/><path class="m" d="M-2.24,33.323l3.721-31.1L-2.984,0l-.744,35.544Z" transform="translate(89.312 7.405)"/><path class="l" d="M5.953,34.8l21.914-5.924,1.566,3.5L7.519,38.3ZM2.977,25.177l21.914-5.924,1.566,3.5L4.542,28.674ZM0,15.55,21.914,9.626l1.564,3.5L1.566,19.048ZM0,5.924,21.914,0l1.564,3.5L1.566,9.421Z" transform="translate(87.073 50.355)"/><path class="l" d="M23.48,34.8,1.566,28.879,0,32.376,21.914,38.3Zm2.977-9.626L4.542,19.253l-1.566,3.5,21.914,5.924Zm2.977-9.626L7.519,9.626l-1.564,3.5,21.913,5.924Zm0-9.626L7.519,0,5.955,3.5,27.868,9.421Z" transform="translate(-0.745 50.355)"/><g class="n" transform="translate(49.118 -4.443)"><ellipse class="bd" cx="8.931" cy="4.073" rx="8.931" ry="4.073"/><ellipse class="bf" cx="8.931" cy="4.073" rx="9.931" ry="5.073"/></g><path class="o" d="M32.041,3.967c0,7.405-7.919,25.918,6.7,25.918S46.181,9.891,46.181,3.227s8.186,0,8.186,0,1.669,18.922,5.209,26.658a128.754,128.754,0,0,0,8.931,16.291c0,2.222,0,9.627-.744,23.7-.51,9.633,7.317,22.912,8.186,28.139,3.925,23.609,6.7,94.044,6.7,94.044L.784,190.574s-2.224-51.921,1.488-75.531S11.947,83.2,11.947,83.2L9.715,46.916s6.648-9.063,8.931-12.589c4.761-7.357,6.7-13.789,6.7-28.139C25.343.265,29.349-.795,32.041,3.967Z" transform="translate(18.565 -6.188)"/></g></g><path class="p" d="M6.7,2.222S0,19.253,0,33.323,4.465,55.538,4.465,55.538s-2.233-8.146,0-8.146S8.186,54.8,8.186,54.8s7.442-11.848,7.442-22.956S8.186,0,8.186,0Z" transform="translate(43.908 92.563)"/><path class="p" d="M5.954,0s9.675,16.291,9.675,32.582S10.791,54.8,10.791,54.8V47.392S8.931,51.835,6.7,54.057,0,40.728,0,31.1,5.954,0,5.954,0Z" transform="translate(78.142 92.563)"/><g transform="translate(20.075)"><path class="q" d="M11.911.007c6.578,0,11.913,3.487,11.916,7.78S18.5,15.557,11.92,15.553.007,12.066,0,7.773,5.333,0,11.911.007Z" transform="matrix(0.883, 0.469, -0.469, 0.883, 7.29, 65.66)"/><path class="q" d="M11.911-.007c6.578,0,11.909,3.473,11.907,7.766S18.48,15.535,11.9,15.539-.007,12.066,0,7.773,5.333,0,11.911-.007Z" transform="matrix(0.883, -0.469, 0.469, 0.883, 68.467, 76.856)"/><path class="p" d="M46.141,97.747c25.483,0,46.141-21.45,46.141-51.095S71.624,0,46.141,0,0,16.563,0,46.652,20.658,97.747,46.141,97.747Z" transform="translate(2.251)"/><path class="q" d="M38.7,81.455A40.949,40.949,0,0,0,73.258,62.562c4.035-6.31,4.14-13.8,4.14-21.834C77.4,18.234,61.3,0,38.7,0S0,18.234,0,40.728c0,7.984.076,15.431,4.066,21.717A40.949,40.949,0,0,0,38.7,81.455Z" transform="translate(9.693 18.513)"/><path class="p" d="M0,39.145A42.225,42.225,0,0,1,26.525,0a48.439,48.439,0,0,1,.266,5.082A48.1,48.1,0,0,1,.877,47.723,42.183,42.183,0,0,1,0,39.145Z" transform="translate(4.484 13.431)"/><ellipse class="r" cx="4.465" cy="4.443" rx="4.465" ry="4.443" transform="translate(64.765 60.721)"/><ellipse class="r" cx="4.465" cy="4.443" rx="4.465" ry="4.443" transform="translate(23.833 60.721)"/><ellipse class="s" cx="2.605" cy="2.592" rx="2.605" ry="2.592" transform="translate(26.81 60.721)"/><ellipse class="s" cx="2.605" cy="2.592" rx="2.605" ry="2.592" transform="translate(68.486 60.721)"/><g class="t" transform="translate(36.491 82.196)"><path class="bd" d="M 11.90084457397461 9.366896629333496 C 9.033703804016113 9.366896629333496 6.325404167175293 8.380656242370605 4.274844169616699 6.589846611022949 C 2.537546157836914 5.072637557983398 1.4337078332901 3.117038726806641 1.100093245506287 0.9999964237213135 L 22.70160675048828 0.9999964237213135 C 22.36797714233398 3.117044925689697 21.26413536071777 5.072637557983398 19.52685356140137 6.589846611022949 C 17.47629356384277 8.380656242370605 14.76799392700195 9.366896629333496 11.90084457397461 9.366896629333496 Z"/><path class="bg" d="M 11.90084457397461 8.366896629333496 C 14.52604389190674 8.366896629333496 17.0007438659668 7.468306541442871 18.86906433105469 5.836636543273926 C 20.10293769836426 4.759073734283447 20.98002624511719 3.439246654510498 21.43936538696289 1.999996423721313 L 2.362325429916382 1.999996423721313 C 2.821659326553345 3.439241170883179 3.698753595352173 4.759077072143555 4.932633876800537 5.836646556854248 C 6.800963878631592 7.468306541442871 9.275653839111328 8.366896629333496 11.90084457397461 8.366896629333496 M 11.90084457397461 10.3668966293335 C 8.791753768920898 10.3668966293335 5.849853992462158 9.29300594329834 3.617054224014282 7.343046188354492 C 1.389284133911133 5.397496223449707 0.104724109172821 2.789676427841187 4.110717782168649e-06 -3.592681878217263e-06 L 23.80170440673828 -3.592681878217263e-06 C 23.69692420959473 2.790666341781616 22.41186332702637 5.397966384887695 20.18464469909668 7.343046188354492 C 17.95185470581055 9.29300594329834 15.00994396209717 10.3668966293335 11.90084457397461 10.3668966293335 Z"/></g><path class="p" d="M0,8.516A35.945,35.945,0,0,1,.624,1.833,37.733,37.733,0,0,1,12.279,0,37.414,37.414,0,0,1,49.6,41.832a36.147,36.147,0,0,1-13.506,2.6A36.005,36.005,0,0,1,0,8.516Z" transform="translate(43.927 9.627)"/><path class="p" d="M21.333,39.111A37.231,37.231,0,0,1,5.941,25.692,36.75,36.75,0,0,1,0,5.616,37.357,37.357,0,0,1,.423,0,92.888,92.888,0,0,0,15.54,2.345a39.847,39.847,0,0,0,5.795,36.764Z" transform="translate(31.276 12.156)"/><ellipse class="u" cx="1.116" cy="1.111" rx="1.116" ry="1.111" transform="translate(82.626 82.936)"/><ellipse class="u" cx="1.116" cy="1.111" rx="1.116" ry="1.111" transform="translate(11.926 82.936)"/><rect class="q" width="13.396" height="11.848" transform="translate(41.694 97.747)"/></g><path class="v" d="M9.308,30.753c-4.743,0-7.758-1.449-8.961-4.308A4.407,4.407,0,0,1,0,24.727V2.962A2.973,2.973,0,0,1,2.977,0h12.67a2.973,2.973,0,0,1,2.977,2.962V24.725a4.411,4.411,0,0,1-.35,1.724C17.065,29.3,14.049,30.753,9.308,30.753ZM2.977,2.962V24.727a1.463,1.463,0,0,0,.116.573c.706,1.676,2.739,2.491,6.216,2.491s5.513-.815,6.221-2.491a1.479,1.479,0,0,0,.117-.576V2.962Z" transform="translate(31.257 225.113)"/><path class="v" d="M9.308,30.753c-4.743,0-7.758-1.449-8.961-4.308A4.407,4.407,0,0,1,0,24.727V2.962A2.973,2.973,0,0,1,2.977,0h12.67a2.973,2.973,0,0,1,2.977,2.962V24.725a4.411,4.411,0,0,1-.35,1.724C17.065,29.3,14.049,30.753,9.308,30.753ZM2.977,2.962V24.727a1.463,1.463,0,0,0,.116.573c.706,1.676,2.739,2.491,6.216,2.491s5.513-.815,6.221-2.491a1.479,1.479,0,0,0,.117-.576V2.962Z" transform="translate(87.817 225.113)"/></g><g transform="translate(852.154 303.121)"><rect class="w" width="64.608" height="49.497" rx="10" transform="translate(18.565 86.436)"/><path class="x" d="M7.874,0l.743,2.955s4.456-.739,8.911,5.171-2.228,5.91-3.713,2.216-2.97.739-1.485,3.694,1.485,7.388-5.941,6.649S-.295,9.6.448,7.388s2.228-5.91,2.228-5.91Z" transform="translate(86.438 151.447)"/><path class="x" d="M8.211,18.686s5.2-8.865.743-16.253S5.24,9.082,5.24,9.082,2.27,5.389.784,6.127s.743,5.91,1.485,6.649-4.863,5.91-.743,11.081S8.211,18.686,8.211,18.686Z" transform="translate(1.443 87.696)"/><g transform="translate(0 87.992)"><path class="b" d="M77.975,36.121l-4.456,70.921a16.6,16.6,0,0,0,0,6.649c.743,3.694-2.228,3.694-2.228,5.91s2.228,2.216,0,6.649a3.955,3.955,0,0,0,2.228,5.91s-11.882,2.955-16.338,0,2.97-4.433,2.97-9.6-2.97-6.649-2.97-10.343,2.97-5.171,2.97-11.081S56.439,82.663,50.5,82.663,40.844,96.7,40.844,101.132s.743,8.126,2.228,9.6-2.228,6.649-2.228,11.82,3.713,2.216,3.713,8.126-16.338,1.478-16.338,1.478a8.827,8.827,0,0,0,2.228-5.91c0-3.694-2.228-.739-2.228-3.694s2.228.739,0-8.865S23.764,79.708,23.764,70.1V36.121S19.308,48.68,15.595,48.68,0,23.562,0,23.562l11.139-5.91,4.456,7.388s3.713-9.6,5.941-15.514S29.7,2.876,37.131,1.4s21.536-2.216,28.962,0S77.975,5.831,79.46,9.525,95.8,64.194,95.8,64.194L87.629,67.03Z" transform="translate(0 0)"/><g class="y" transform="translate(0 0)"><g class="j" transform="translate(25.249 17.652)"><path class="bd" d="M 51.06466293334961 6.410120010375977 L 50.49790191650391 6.410120010375977 L 2.865600663426449e-06 6.410120010375977 L -0.5667571425437927 6.410120010375977 L -0.4960971474647522 5.847780227661133 L 0.2465228587388992 -0.06233999505639076 L 0.3015128672122955 -0.5 L 0.7426228523254395 -0.5 L 49.75529098510742 -0.5 L 50.19640350341797 -0.5 L 50.25139236450195 -0.06233999505639076 L 50.99400329589844 5.847780227661133 L 51.06466293334961 6.410120010375977 Z"/><path class="bh" d="M 50.49790191650391 5.910120010375977 L 49.75529098510742 5.187988261212695e-09 L 0.7426228523254395 5.187988261212695e-09 L 2.865600663426449e-06 5.910120010375977 L 50.49790191650391 5.910120010375977 M 51.63141250610352 6.910120010375977 L 50.49790191650391 6.910120010375977 L 2.865600663426449e-06 6.910120010375977 L -1.133517146110535 6.910120010375977 L -0.9921971559524536 5.785449981689453 L -0.249577134847641 -0.1246699914336205 L -0.1395871341228485 -1 L 0.7426228523254395 -1 L 49.75529098510742 -1 L 50.63750457763672 -1 L 50.74749374389648 -0.1246699914336205 L 51.49010467529297 5.785449981689453 L 51.63141250610352 6.910120010375977 Z"/></g><g class="j" transform="translate(25.992 30.211)"><path class="bd" d="M 50.36582565307617 7.887655258178711 L 49.75529479980469 7.887655258178711 L 5.492553555086488e-06 7.887655258178711 L -0.6105245351791382 7.887655258178711 L -0.4901845157146454 7.289105415344238 L 0.9950454831123352 -0.09855475276708603 L 1.075755476951599 -0.500004768371582 L 1.485235452651978 -0.500004768371582 L 48.27006530761719 -0.500004768371582 L 48.67954635620117 -0.500004768371582 L 48.76025390625 -0.09855475276708603 L 50.24548721313477 7.289105415344238 L 50.36582565307617 7.887655258178711 Z"/><path class="bh" d="M 49.75529479980469 7.387655258178711 L 48.27006530761719 -4.755096597364172e-06 L 1.485235452651978 -4.755096597364172e-06 L 5.492553555086488e-06 7.387655258178711 L 49.75529479980469 7.387655258178711 M 50.97634506225586 8.387655258178711 L 49.75529479980469 8.387655258178711 L 5.492553555086488e-06 8.387655258178711 L -1.221044540405273 8.387655258178711 L -0.9803745150566101 7.190555095672607 L 0.5048555135726929 -0.1971047520637512 L 0.6662654876708984 -1.000004768371582 L 1.485235452651978 -1.000004768371582 L 48.27006530761719 -1.000004768371582 L 49.08903503417969 -1.000004768371582 L 49.25044631958008 -0.1971047520637512 L 50.73567581176758 7.190555095672607 L 50.97634506225586 8.387655258178711 Z"/></g><g class="z" transform="translate(37.873 -5.25)"><ellipse class="bd" cx="12.996" cy="6.28" rx="12.996" ry="6.28"/><ellipse class="bf" cx="12.996" cy="6.28" rx="14.496" ry="7.78"/></g><rect class="f" width="57.181" height="67.966" transform="translate(20.793 69.365)"/><path class="w" d="M10.256,9.14s2.97,13.3-5.941,34.722,0,6.649,0,6.649S20.652,26.132,15.454,8.4,10.256,9.14,10.256,9.14Z" transform="translate(19.449 -6.264)"/><path class="aa" d="M0,0V8.126L2.228,11.82l4.456.739,5.2-.739.743-3.694V0Z" transform="translate(58.667 22.084)"/><path class="ab" d="M7.808,15.905a9.327,9.327,0,0,1-5-1.055A6.451,6.451,0,0,1,.35,11.607,4.409,4.409,0,0,1,0,9.893V2.956c0-.132,0-.262,0-.39C-.006,1.613-.012.791.424.35A1.429,1.429,0,0,1,1.489,0H14.131A1.43,1.43,0,0,1,15.2.351c.436.44.429,1.262.422,2.213,0,.128,0,.259,0,.392V9.892a4.389,4.389,0,0,1-.348,1.719,6.458,6.458,0,0,1-2.457,3.24A9.332,9.332,0,0,1,7.808,15.905ZM2.974,2.956V9.893a1.46,1.46,0,0,0,.116.572l.1.247c.635,1.531,1.235,2.977,4.616,2.977s3.98-1.445,4.618-2.976l.1-.248a1.463,1.463,0,0,0,.116-.573V2.956Z" transform="translate(57.177 19.868)"/><path class="w" d="M-3.13,9.14S-6.883,24.546,2.3,43.862a17.389,17.389,0,0,1,.743,11.82c-.336.676-1.485-5.91-1.485-5.91S-13.526,26.132-8.328,8.4-3.13,9.14-3.13,9.14Z" transform="translate(75.676 -6.264)"/></g></g><path class="x" d="M32.3,49.486c17.841,0,32.3-11.08,32.3-24.749,0-8.472-5.556-15.949-14.029-20.41-2.541-1.338,8.854,11.917,5.86,11.176-1.758-.435-12.765-1.012-18.565-5.171-4.531-3.249-4.421-7.243-5.941-7.243-.964,0-2.8-3.689-2.488-3,12.142,26.5-8.954,1.364-12.807,3C6.715,7.313,0,15.425,0,24.738,0,38.406,14.463,49.486,32.3,49.486Z" transform="translate(17.823 36.21)"/><rect class="x" width="10.397" height="7.388" transform="translate(45.3 83.48)"/><ellipse class="ac" cx="35.646" cy="39.155" rx="35.646" ry="39.155" transform="translate(17.823 0)"/><path class="x" d="M10.421.006c5.755,0,10.423,3.277,10.425,7.311s-4.661,7.3-10.417,7.3S.007,11.339,0,7.305,4.666,0,10.421.006Z" transform="matrix(0.883, 0.469, -0.469, 0.883, 15.401, 56.059)"/><path class="x" d="M10.421-.006c5.755,0,10.419,3.264,10.417,7.3S16.168,14.6,10.412,14.6-.007,11.339,0,7.305,4.666,0,10.421-.006Z" transform="matrix(0.883, -0.469, 0.469, 0.883, 66.473, 65.855)"/><path class="ac" d="M33.789,73.877c18.661,0,33.789-16.7,33.789-37.308S49.108,0,30.447,0,0,15.964,0,36.569,15.128,73.877,33.789,73.877Z" transform="translate(10.397 4.433)"/><path class="x" d="M1.958,44.326s-2.97-13.3-1.485-19.947a57.553,57.553,0,0,1,5.2-13.3s-.743,5.91,1.485,8.126S2.7,19.208,14.582,0c0,13.3,14.852,17.73,14.852,17.73a54.263,54.263,0,0,1-3.713-7.388,28.022,28.022,0,0,1-.743-6.649s7.145,9.986,11.882,13.3S52.456,22.9,52.456,22.9a87.3,87.3,0,0,1-5.2-8.126A12.989,12.989,0,0,1,46.515,9.6s5.114,7.42,9.654,10.343a37.794,37.794,0,0,0,5.2,2.216c-1.107,2.024.743,12.559.743,12.559v.739L59.882,42.11,39.831,56.146,16.067,54.669,7.9,50.236Z" transform="translate(20.321 27.334)"/><ellipse class="ad" cx="4.084" cy="4.063" rx="4.084" ry="4.063" transform="translate(29.705 55.407)"/><ellipse class="ad" cx="4.084" cy="4.063" rx="4.084" ry="4.063" transform="translate(63.122 55.407)"/><ellipse class="s" cx="1.857" cy="1.847" rx="1.857" ry="1.847" transform="translate(66.835 55.407)"/><ellipse class="s" cx="1.857" cy="1.847" rx="1.857" ry="1.847" transform="translate(33.418 55.407)"/><g class="t" transform="translate(40.844 71.66)"><path class="bd" d="M 9.291707992553711 7.126523017883301 C 7.106817722320557 7.126523017883301 5.043967723846436 6.372773170471191 3.48316764831543 5.004132747650146 C 2.233772039413452 3.908548355102539 1.416424155235291 2.513956785202026 1.119576454162598 1.000002980232239 L 17.46258163452148 1.000002980232239 C 17.16574668884277 2.513954639434814 16.34844207763672 3.908553838729858 15.09912776947021 5.004162788391113 C 13.53850746154785 6.372782707214355 11.47605800628662 7.126523017883301 9.291707992553711 7.126523017883301 Z"/><path class="bg" d="M 9.291707992553711 6.126523017883301 C 11.23334789276123 6.126523017883301 13.06163787841797 5.460922718048096 14.43978786468506 4.252313137054443 C 15.1796989440918 3.603441715240479 15.74398994445801 2.836130380630493 16.10807609558105 2.000002861022949 L 2.474106073379517 2.000002861022949 C 2.83821177482605 2.836119890213013 3.402527093887329 3.603398561477661 4.142477512359619 4.25225305557251 C 5.52080774307251 5.460893154144287 7.349507808685303 6.126523017883301 9.291707992553711 6.126523017883301 M 9.291707992553711 8.126523017883301 C 6.864127635955811 8.126523017883301 4.567127704620361 7.284652709960938 2.823857545852661 5.756002902984619 C 1.084637641906738 4.230893135070801 0.08176761120557785 2.186702966690063 -2.386169398960192e-06 2.939453224826138e-06 L 18.58215713500977 2.939453224826138e-06 C 18.50034713745117 2.187652826309204 17.49704742431641 4.231332778930664 15.75846767425537 5.756002902984619 C 14.01537799835205 7.284652709960938 11.71875762939453 8.126523017883301 9.291707992553711 8.126523017883301 Z"/></g><path class="ac" d="M15.595,6.649V0a18.2,18.2,0,0,0-3.713,2.955,37.127,37.127,0,0,0-2.97,5.171l.743-2.586s-4.662.814-5.941,1.108A14.8,14.8,0,0,0,0,8.865a13.966,13.966,0,0,1,5.2,0,18.709,18.709,0,0,1,4.456,2.216Z" transform="translate(20.051 0.739)"/><path class="ae" d="M.531.528" transform="translate(87.097 153.135)"/><g transform="translate(26.734 216.458)"><ellipse class="af" cx="10.025" cy="5.541" rx="10.025" ry="5.541" transform="translate(0 0)"/><rect class="af" width="20.051" height="6.649" transform="translate(0 5.171)"/></g><g transform="translate(53.468 216.458)"><ellipse class="af" cx="10.025" cy="5.541" rx="10.025" ry="5.541" transform="translate(0 0)"/><rect class="af" width="20.051" height="6.649" transform="translate(0 5.171)"/></g></g><g transform="translate(1071.528 152)"><g transform="translate(39.443 248.853)"><g transform="translate(0 29.537)"><g transform="translate(2.977)"><path class="i" d="M0,8.861S0,31.014,0,45.045,0,77.536,0,77.536H16.373s2.233-24.368,2.233-37.66V0Z" transform="translate(2.233)"/><rect class="ag" width="22.326" height="13.292" rx="3" transform="translate(0 75.321)"/></g><g transform="translate(0 84.182)"><path class="ah" d="M13.768,14.03S27.536,13.97,27.536,9,21.372,0,13.768,0,0,4.029,0,9,13.768,14.03,13.768,14.03Z"/><rect class="ah" width="27.536" height="7.846" transform="translate(0 8.4)"/></g></g><g transform="translate(29.024)"><g transform="translate(2.977)"><path class="i" d="M0,8.861S0,60.552,0,74.582s0,32.491,0,32.491H16.373s2.233-24.368,2.233-37.66V0Z" transform="translate(2.233)"/><rect class="ag" width="22.326" height="13.292" rx="3" transform="translate(0 104.858)"/></g><g transform="translate(0 113.719)"><path class="ah" d="M13.768,14.03S27.536,13.97,27.536,9,21.372,0,13.768,0,0,4.029,0,9,13.768,14.03,13.768,14.03Z"/><rect class="ah" width="27.536" height="7.846" transform="translate(0 8.4)"/></g></g></g><g transform="translate(0 114.457)"><path class="i" d="M5.21,49.476C2.54,48.482,1.357,44.366.937,42.4A10.88,10.88,0,0,1,0,37.661c0-5.5,3.483-8.268,6.992-9.662a1.781,1.781,0,0,1-.294-.676C5.953,23.63,12.651,0,12.651,0L25.3,2.953S22.327,14.03,20.838,19.2a42.306,42.306,0,0,0-1.489,10.338l-.161.019a23.316,23.316,0,0,1,.905,6.627q0,.143,0,.284l2.238,4.885s0,2.953-3.721,6.646a9.948,9.948,0,0,1-7.2,2.624A18.365,18.365,0,0,1,5.21,49.476Z" transform="translate(0 90.09)"/><path class="i" d="M20.093,49.476c2.67-.994,3.853-5.109,4.273-7.072a10.88,10.88,0,0,0,.937-4.743c0-5.5-3.483-8.268-6.992-9.662a1.781,1.781,0,0,0,.294-.676C19.35,23.63,12.652,0,12.652,0L0,2.953S2.977,14.03,4.466,19.2A42.306,42.306,0,0,1,5.955,29.538l.161.019a23.316,23.316,0,0,0-.905,6.627q0,.143,0,.284L2.977,41.353S2.977,44.306,6.7,48a9.948,9.948,0,0,0,7.2,2.624A18.365,18.365,0,0,0,20.093,49.476Z" transform="translate(111.631 90.09)"/><g class="j" transform="translate(10.419 0)"><path class="bd" d="M 94.24945068359375 210.1933746337891 L 88.48715209960938 210.1933746337891 L 80.55548095703125 190.8757629394531 L 79.41920471191406 188.1083221435547 L 78.66289520263672 191.0027923583984 L 73.64865875244141 210.1933746337891 L 22.58206176757813 210.1933746337891 L 22.58206176757813 112.9812622070313 C 22.58206176757813 98.46217346191406 26.04525566101074 90.67345428466797 28.82800674438477 84.41512298583984 C 30.66786766052246 80.27729034423828 32.25681304931641 76.70375823974609 32.25681304931641 72.36723327636719 C 32.25681304931641 61.97500991821289 29.29589462280273 44.31728744506836 29.26600646972656 44.1401481628418 L 27.30667304992676 44.0770378112793 L 19.1203670501709 78.7835693359375 L 19.11659049987793 78.79950714111328 L 19.11336708068848 78.81556701660156 L 15.62142658233643 96.13995361328125 L 1.215314626693726 90.94200134277344 L 6.171895503997803 73.37725830078125 L 6.17970085144043 73.34962463378906 L 6.185895442962646 73.32159423828125 C 6.270923137664795 72.93703460693359 14.70322895050049 34.78939819335938 15.86875629425049 28.23612213134766 C 17.70092391967773 17.93425941467285 18.93828392028809 16.39451026916504 21.92770004272461 12.67451000213623 C 22.49970054626465 11.96273231506348 23.14800643920898 11.15595436096191 23.86825561523438 10.20309352874756 C 24.0395622253418 9.976454734802246 24.81900596618652 9.129759788513184 27.65714454650879 7.748982429504395 C 29.86408996582031 6.675315856933594 32.64050674438477 5.606732368469238 35.68622970581055 4.658787727355957 C 40.02722930908203 3.307732343673706 48.75364685058594 1.035871267318726 58.42411804199219 1.000426769256592 C 58.49806213378906 1.000149011611938 58.57189559936523 1.000010132789612 58.64581298828125 1.000010132789612 C 68.17003631591797 1.000010132789612 76.58778381347656 3.209176778793335 80.7578125 4.526037693023682 C 87.13639831542969 6.540343284606934 91.34020233154297 8.883871078491211 92.19612121582031 10.15778827667236 C 96.3751220703125 16.37771224975586 100.631965637207 27.39671516418457 100.9964370727539 28.34938049316406 L 114.8909149169922 90.75240325927734 L 99.00638580322266 93.37928771972656 L 88.04867553710938 44.08959197998047 L 86.08631134033203 44.14098358154297 C 86.06386566162109 44.27470397949219 83.83986663818359 57.66803741455078 83.83986663818359 70.89037322998047 C 83.83986663818359 77.12903594970703 85.90903472900391 82.62773132324219 88.09970092773438 88.44928741455078 C 89.40586853027344 91.92034149169922 90.75650787353516 95.50956726074219 91.78620147705078 99.51964569091797 C 92.94922637939453 104.0491485595703 93.51458740234375 108.4524841308594 93.51458740234375 112.9812622070313 C 93.51458740234375 130.5752563476563 94.16304016113281 200.9015502929688 94.24945068359375 210.1933746337891 Z"/><path class="bi" d="M 93.24011993408203 209.193359375 C 93.12435913085938 196.6951293945313 92.51458740234375 130.0460510253906 92.51458740234375 112.9812698364258 C 92.51458740234375 108.5374908447266 91.95949554443359 104.2154922485352 90.81761932373047 99.76833343505859 C 89.80146789550781 95.81086730957031 88.46052551269531 92.24748992919922 87.16378021240234 88.80146026611328 C 84.94015502929688 82.892333984375 82.83987426757813 77.31095886230469 82.83987426757813 70.89036560058594 C 82.83987426757813 57.58467864990234 85.00784301757813 44.52480316162109 85.10012054443359 43.97533416748047 L 86.79905700683594 33.86077117919922 L 89.02484130859375 43.87261581420898 L 99.77715301513672 92.23825836181641 L 113.6851501464844 89.93824005126953 L 100.0362854003906 28.6384391784668 C 99.5391845703125 27.3443431854248 95.40709686279297 16.72995567321777 91.3660888671875 10.71545791625977 C 90.86780548095703 9.973833084106445 87.54555511474609 7.718207836151123 80.45668029785156 5.479645729064941 C 76.34152984619141 4.180114269256592 68.03587341308594 2.000020503997803 58.64577865600586 2.000020503997803 C 58.57308959960938 2.000020503997803 58.50059127807617 2.000145673751831 58.42777633666992 2.000426769256592 C 48.88793182373047 2.035395622253418 40.27087020874023 4.279208183288574 35.98340225219727 5.613614082336426 C 32.98493194580078 6.546833038330078 30.25702667236328 7.596176624298096 28.09458923339844 8.648207664489746 C 25.28387069702148 10.01564598083496 24.68990325927734 10.77442646026611 24.66599655151367 10.80605220794678 C 23.93677711486816 11.77080154418945 23.28352737426758 12.58370780944824 22.70715141296387 13.30095767974854 C 21.23527717590332 15.13255214691162 20.26290321350098 16.34258270263672 19.41862106323242 18.30430221557617 C 18.50137138366699 20.43564605712891 17.73415184020996 23.45827102661133 16.8532772064209 28.41123962402344 C 15.68408966064453 34.98520660400391 7.509683609008789 71.96646118164063 7.162277221679688 73.53752136230469 L 7.14990234375 73.59358215332031 L 7.134308815002441 73.64883422851563 L 2.430623292922974 90.3173828125 L 14.87023162841797 94.80579376220703 L 18.13308906555176 78.61798858642578 L 18.13955879211426 78.58589935302734 L 18.14705848693848 78.55402374267578 L 26.33337020874023 43.84748840332031 L 28.60487174987793 34.21733474731445 L 30.2520580291748 43.97370910644531 C 30.37474632263184 44.70039367675781 33.25680923461914 61.89142608642578 33.25680923461914 72.36724090576172 C 33.25680923461914 76.91605377197266 31.62790298461914 80.57949066162109 29.74174690246582 84.82139587402344 C 26.99746513366699 90.99330139160156 23.58209037780762 98.67446136474609 23.58209037780762 112.9812698364258 L 23.58209037780762 209.193359375 L 72.87637329101563 209.193359375 L 77.69537353515625 190.7499847412109 L 79.20793151855469 184.9610443115234 L 81.48052978515625 190.4959259033203 L 89.15756225585938 209.193359375 L 93.24011993408203 209.193359375 M 95.25881195068359 211.193359375 L 87.81671142578125 211.193359375 L 79.63040161132813 191.2555847167969 L 74.42093658447266 211.193359375 L 21.58209037780762 211.193359375 C 21.58209037780762 211.193359375 21.58209037780762 137.3496704101563 21.58209037780762 112.9812698364258 C 21.58209037780762 88.61283111572266 31.25680923461914 82.79582977294922 31.25680923461914 72.36724090576172 C 31.25680923461914 61.93861389160156 28.27996444702148 44.30664443969727 28.27996444702148 44.30664443969727 L 20.09365272521973 79.01317596435547 L 16.37262153625488 97.47408294677734 L -3.906250185536919e-06 91.56658172607422 L 5.209465026855469 73.10567474365234 C 5.209465026855469 73.10567474365234 13.70883941650391 34.66961288452148 14.88418388366699 28.06101989746094 C 17.11680793762207 15.50758266448975 18.60524559020996 15.50758266448975 23.07049560546875 9.600083351135254 C 25.32605934143066 6.615989208221436 41.88112258911133 0.06105181947350502 58.42043304443359 0.0004268188495188951 C 58.4955940246582 0.0001512527524027973 58.57060241699219 1.422119112248765e-05 58.6457633972168 1.422119112248765e-05 C 74.77311706542969 1.422119112248765e-05 90.82674407958984 6.326526165008545 93.02618408203125 9.600083351135254 C 97.49143218994141 16.24602127075195 101.9566802978516 28.06101989746094 101.9566802978516 28.06101989746094 L 116.0966873168945 91.56658172607422 L 98.23564910888672 94.52033233642578 L 87.07249450683594 44.30664443969727 C 87.07249450683594 44.30664443969727 84.83987426757813 57.59848785400391 84.83987426757813 70.89036560058594 C 84.83987426757813 84.18220520019531 94.51458740234375 94.01426696777344 94.51458740234375 112.9812698364258 C 94.51458740234375 131.9482421875 95.25881195068359 211.193359375 95.25881195068359 211.193359375 Z"/></g><g class="ai" transform="translate(10.419 0)"><g class="aj" transform="translate(49.118 -4.43)"><ellipse class="bd" cx="8.931" cy="4.061" rx="8.931" ry="4.061"/><ellipse class="bf" cx="8.931" cy="4.061" rx="9.931" ry="5.061"/></g><path class="ak" d="M68.032.029S76.094,12.77,76.963,19.72c3.925,31.391,6.7,125.042,6.7,125.042l-25.146-.6-4.577-.11L1.8,142.793S-1.915,61.7,1.8,30.3,12.961.029,12.961.029Z" transform="translate(17.552 76.769)"/></g></g><g transform="translate(116.849 115.935) rotate(180)"><path class="q" d="M11.911-.007c6.578,0,11.909,3.463,11.907,7.744S18.48,15.492,11.9,15.5-.007,12.032,0,7.751,5.333,0,11.911-.007Z" transform="matrix(-0.883, 0.469, -0.469, -0.883, 28.297, 32.632)"/><path class="q" d="M11.911.007c6.578,0,11.913,3.477,11.916,7.758S18.5,15.513,11.92,15.509.007,12.032,0,7.751,5.333,0,11.911.007Z" transform="matrix(-0.883, -0.469, 0.469, -0.883, 89.494, 43.828)"/><g transform="translate(28.288 96.735)"><ellipse class="d" cx="18.605" cy="9.6" rx="18.605" ry="9.6" transform="translate(37.21 19.199) rotate(180)"/><g class="al" transform="translate(0 0)"><ellipse class="am" cx="18.605" cy="3.692" rx="18.605" ry="3.692" transform="translate(37.21 10.338) rotate(180)"/></g></g><path class="d" d="M46.141,93.043C20.658,93.043,0,71.653,0,42.091S20.658,0,46.141,0,92.282,12.086,92.282,42.091,71.624,93.043,46.141,93.043Z" transform="translate(94.523 104.858) rotate(180)"/><path class="q" d="M38.7,81.228A40.976,40.976,0,0,1,4.14,62.387C.1,56.094,0,48.625,0,40.614,0,18.184,16.093,0,38.7,0S77.4,18.184,77.4,40.614c0,7.962-.076,15.388-4.066,21.657A40.976,40.976,0,0,1,38.7,81.228Z" transform="translate(87.081 90.828) rotate(180)"/><path class="d" d="M37.954,41.834A42.219,42.219,0,0,0,.25,0,48.167,48.167,0,0,0,0,4.911,48.091,48.091,0,0,0,36.823,51.533,41.886,41.886,0,0,0,37.954,41.834Z" transform="translate(42.428 98.693) rotate(180)"/><ellipse class="r" cx="4.465" cy="4.431" rx="4.465" ry="4.431" transform="translate(73.685 48.737) rotate(180)"/><ellipse class="r" cx="4.465" cy="4.431" rx="4.465" ry="4.431" transform="translate(32.754 48.737) rotate(180)"/><g class="t" transform="translate(58.298 25.107) rotate(180)"><path class="bd" d="M 9.916309356689453 8.627700805664063 C 7.45198917388916 8.627700805664063 5.121209144592285 7.729180812835693 3.353319406509399 6.097661018371582 C 1.727163195610046 4.596937656402588 0.7380179762840271 2.625494003295898 0.5337445139884949 0.5000008940696716 L 19.29887390136719 0.5000008940696716 C 19.09460067749023 2.625478267669678 18.10545539855957 4.596919059753418 16.47929954528809 6.097661018371582 C 14.71140956878662 7.729180812835693 12.38062953948975 8.627700805664063 9.916309356689453 8.627700805664063 Z"/><path class="bg" d="M 9.916309356689453 8.127700805664063 C 12.25458908081055 8.127700805664063 14.46493911743164 7.276260852813721 16.14019966125488 5.730220794677734 C 17.53404998779297 4.443874359130859 18.43196678161621 2.792568683624268 18.72942924499512 1.000000834465027 L 1.10319197177887 1.000000834465027 C 1.400660395622253 2.792574405670166 2.298577308654785 4.443882465362549 3.692419290542603 5.730220794677734 C 5.367679119110107 7.276260852813721 7.578029155731201 8.127700805664063 9.916309356689453 8.127700805664063 M 9.916309356689453 9.127700805664063 C 7.325939178466797 9.127700805664063 4.874729156494141 8.182101249694824 3.014219284057617 6.465100765228271 C 1.158539414405823 4.752551078796387 0.08756935596466064 2.457040786743164 -6.43310556824872e-07 8.796691872703377e-07 L 19.83261871337891 8.796691872703377e-07 C 19.74508857727051 2.456040859222412 18.67461013793945 4.752050876617432 16.81839942932129 6.465100765228271 C 14.95788955688477 8.182101249694824 12.50667953491211 9.127700805664063 9.916309356689453 9.127700805664063 Z"/></g><path class="d" d="M49.862,8.492a35.746,35.746,0,0,0-.624-6.664A37.829,37.829,0,0,0,37.584,0,37.305,37.305,0,0,0,.262,41.714a36.239,36.239,0,0,0,13.506,2.592A35.955,35.955,0,0,0,49.862,8.492Z" transform="translate(93.779 99.689) rotate(180)"/><path class="d" d="M0,41.509H.006a37.039,37.039,0,0,0,11.349-4.8,37.24,37.24,0,0,0,9.037-8.079,36.7,36.7,0,0,0,5.968-10.616A36.574,36.574,0,0,0,28.516,5.6,37.16,37.16,0,0,0,28.093,0,94.107,94.107,0,0,1,11.659,2.43a39.714,39.714,0,0,1,1.228,9.817A39.868,39.868,0,0,1,.005,41.5Z" transform="translate(59.782 97.167) rotate(180)"/><rect class="q" width="13.396" height="11.815" transform="translate(55.08 11.815) rotate(180)"/></g><rect class="ah" width="56.56" height="7.384" transform="translate(40.187 185.348)"/><g transform="translate(62.514 183.871)"><g class="an"><rect class="bd" width="12.652" height="10.338"/><rect class="bf" x="1" y="1" width="10.652" height="8.338"/></g><rect class="ao" width="4.465" height="1.477" transform="translate(0.744 4.431)"/></g><g class="ap" transform="translate(33.489 57.598)"><ellipse class="bd" cx="14.14" cy="14.03" rx="14.14" ry="14.03"/><ellipse class="bf" cx="14.14" cy="14.03" rx="13.14" ry="13.03"/></g><rect class="aq" width="17.117" height="2.954" transform="translate(59.537 70.89)"/><path class="aq" d="M0,0,11.163,2.954l-.744,2.954L0,2.954Z" transform="translate(100.468 70.89)"/><path class="aq" d="M3.174,0-7.989,2.954l.744,2.954L3.174,2.954Z" transform="translate(32.548 70.89)"/><g class="ap" transform="translate(74.421 57.598)"><ellipse class="bd" cx="14.14" cy="14.03" rx="14.14" ry="14.03"/><ellipse class="bf" cx="14.14" cy="14.03" rx="13.14" ry="13.03"/></g><path class="ae" d="M.533.528" transform="translate(61.237 111.715)"/><path class="ar" d="M11.907,6.646,3.721,14.03S0,12.553,0,7.384,5.954,0,5.954,0V2.954Z" transform="translate(55.816 111.504)"/><path class="ar" d="M-8.522,6.646-.335,14.03A8.691,8.691,0,0,0,3.386,6.646C3.386,1.477-2.568,0-2.568,0V2.954Z" transform="translate(77.733 111.504)"/><path class="ar" d="M0,8.123l2.233,8.123,14.884-1.477.744-5.907,1.488,4.431,4.465-1.108L22.326,0Z" transform="translate(106.422 199.378)"/><path class="ar" d="M6.771,8.123,4.539,16.246l-14.884-1.477-.744-5.907-1.488,4.431-4.465-1.108L-15.555,0Z" transform="translate(24.486 199.378)"/></g><g transform="translate(963.937 305.919)"><path class="x" d="M0,7.4,2.959,30.321h7.4L13.315,0Z" transform="translate(34.028 187.84)"/><g transform="translate(0 0)"><ellipse class="as" cx="38.836" cy="39.195" rx="38.836" ry="39.195" transform="translate(18.494)"/><path class="x" d="M10.381.006c5.733,0,10.382,3.28,10.385,7.319s-4.643,7.31-10.376,7.307S.007,11.351,0,7.313,4.648,0,10.381.006Z" transform="matrix(0.883, 0.469, -0.469, 0.883, 19.796, 51.704)"/><path class="x" d="M10.381-.006c5.733,0,10.379,3.268,10.376,7.307s-4.652,7.315-10.385,7.319S-.007,11.351,0,7.313,4.648,0,10.381-.006Z" transform="matrix(0.883, -0.469, 0.469, 0.883, 70.638, 61.462)"/><path class="x" d="M32.179,49.5c17.772,0,32.179-11.092,32.179-24.774,0-8.48-5.535-15.966-13.975-20.432C47.852,2.951,59.2,16.219,56.22,15.477,54.47,15.042,43.5,14.464,37.727,10.3,33.214,7.049,29.018-.643,29.331.043c12.1,26.527-8.919,1.366-12.758,3.008C6.689,7.279,0,15.4,0,24.722,0,38.4,14.407,49.5,32.179,49.5Z" transform="translate(22.192 31.852)"/><ellipse class="ad" cx="4.069" cy="4.067" rx="4.069" ry="4.067" transform="translate(34.028 51.028)"/><ellipse class="ad" cx="4.069" cy="4.067" rx="4.069" ry="4.067" transform="translate(67.317 51.028)"/><ellipse class="s" cx="1.849" cy="1.849" rx="1.849" ry="1.849" transform="translate(71.015 51.028)"/><ellipse class="s" cx="1.849" cy="1.849" rx="1.849" ry="1.849" transform="translate(37.727 51.028)"/><g class="t" transform="translate(46.234 67.297)"><path class="bd" d="M 8.146712303161621 6.394844532012939 C 6.267841815948486 6.394844532012939 4.493021965026855 5.721274375915527 3.149171829223633 4.498224258422852 C 2.095130443572998 3.538933992385864 1.396364569664001 2.323033571243286 1.123778343200684 1.000004410743713 L 15.168381690979 1.000004410743713 C 14.89580631256104 2.323022842407227 14.19709205627441 3.538916349411011 13.14312171936035 4.498254299163818 C 11.79945182800293 5.721294403076172 10.02502155303955 6.394844532012939 8.146712303161621 6.394844532012939 Z"/><path class="bg" d="M 8.146712303161621 5.394844532012939 C 9.775491714477539 5.394844532012939 11.31086158752441 4.813794612884521 12.46999168395996 3.758734464645386 C 13.03253650665283 3.246697902679443 13.47577667236328 2.649950981140137 13.78471374511719 2.000004529953003 L 2.507474660873413 2.000004529953003 C 2.816425561904907 2.649937391281128 3.259682416915894 3.246652841567993 3.822252035140991 3.758654356002808 C 4.981572151184082 4.813764572143555 6.517362117767334 5.394844532012939 8.146712303161621 5.394844532012939 M 8.146712303161621 7.394844532012939 C 6.018342018127441 7.394844532012939 4.004471778869629 6.628794193267822 2.476081848144531 5.237784385681152 C 0.9512519240379333 3.850024461746216 0.07189192622900009 1.989884376525879 1.924438493006164e-06 4.411773716128664e-06 L 16.29216194152832 4.411773716128664e-06 C 16.2202320098877 1.990824460983276 15.34044170379639 3.850444316864014 13.81625175476074 5.237784385681152 C 12.28803157806396 6.628794193267822 10.27455234527588 7.394844532012939 8.146712303161621 7.394844532012939 Z"/></g><path class="at" d="M27.37,14.051s-2.959-2.958-4.438-2.958-5.918,3.7-5.918,10.353,3.7,13.312,3.7,18.488S16.274,52.507,10.356,52.507,0,48.809,0,42.893s5.918-5.916,5.918-5.916S2.959,39.2,2.959,41.414s2.959,4.437,5.178,4.437,3.7-5.916,0-10.353S2.959,22.925,2.959,17.749,7.4,0,18.494,0,32.549,11.832,32.549,11.832Z" transform="translate(0 4.437)"/><path class="at" d="M-18.116,14.051s2.959-2.958,4.438-2.958,5.918,3.7,5.918,10.353-3.7,13.312-3.7,18.488S-7.02,52.507-1.1,52.507s10.356-3.7,10.356-9.614-5.918-5.916-5.918-5.916S6.3,39.2,6.3,41.414s-2.959,4.437-5.178,4.437-3.7-5.916,0-10.353S6.3,22.925,6.3,17.749,1.857,0-9.239,0-23.294,11.832-23.294,11.832Z" transform="translate(102.447 4.437)"/></g><path class="x" d="M3.786,7.4.827,30.321h-7.4L-9.529,0Z" transform="translate(73.887 187.84)"/><path class="au" d="M50.3,108.711q-2.78,0-6.866,2.619c-.057.081-.114.135-.156.107q-4.2-2.728-7.032-2.726c-2.959,0-9.618,5.176-14.056,5.176s-8.138-5.176-13.315-5.176A26.211,26.211,0,0,0,0,110.19S9.617,60.641,14.8,49.549C6.658,45.851,7.4,35.5,7.4,35.5s1.48-11.832,4.439-19.228S19.233,1.478,30.33,1.478c7.843,0,11.251-.739,12.576-1.172V0a2.21,2.21,0,0,0,.37.174A2.21,2.21,0,0,0,43.645,0V.306c1.324.433,4.731,1.172,12.576,1.172,11.1,0,15.535,7.4,18.494,14.791a62.291,62.291,0,0,1,2.724,9.421l4.673-4.983s14.056-6.657,12.576,8.134C93.528,40.428,80.567,47.476,75.005,49.986a9.606,9.606,0,0,1-1.771,1.041C78.413,62.121,86.55,110.19,86.55,110.19a26.22,26.22,0,0,0-8.877-1.478c-5.179,0-8.877,5.176-13.316,5.176S53.262,108.711,50.3,108.711Z" transform="translate(10.356 82.827)"/><ellipse class="s" cx="1.479" cy="1.479" rx="1.479" ry="1.479" transform="translate(57.7 95.399)"/><ellipse class="s" cx="1.479" cy="1.479" rx="1.479" ry="1.479" transform="translate(57.7 102.795)"/><ellipse class="s" cx="1.479" cy="1.479" rx="1.479" ry="1.479" transform="translate(57.7 110.19)"/><ellipse class="s" cx="1.479" cy="1.479" rx="1.479" ry="1.479" transform="translate(57.7 117.585)"/><ellipse class="s" cx="1.479" cy="1.479" rx="1.479" ry="1.479" transform="translate(57.7 124.98)"/><ellipse class="s" cx="1.479" cy="1.479" rx="1.479" ry="1.479" transform="translate(57.7 132.376)"/><g class="av" transform="translate(46.604 82.827)"><ellipse class="bd" cx="8.877" cy="3.328" rx="8.877" ry="3.328"/><ellipse class="bf" cx="8.877" cy="3.328" rx="9.377" ry="3.828"/></g><rect class="x" width="10.356" height="7.395" transform="translate(49.563 79.13)"/><path class="aw" d="M0,10.353S.74,5.916,6.658,0" transform="translate(25.891 102.055)"/><path class="ax" d="M0,22.925s5.178.74,9.617-6.656S19.973,0,19.973,0" transform="translate(25.151 110.19)"/><path class="ax" d="M0,0S19.778,13.836,58.245,1.264" transform="translate(25.151 133.115)"/><path class="ay" d="M7.4,6.656S1.479,8.135,0,0" transform="translate(76.193 127.199)"/><g transform="translate(29.59 212.245)"><ellipse class="az" cx="9.987" cy="5.546" rx="9.987" ry="5.546" transform="translate(0 0)"/><rect class="az" width="19.973" height="6.656" transform="translate(0 5.177)"/></g><g transform="translate(60.659 212.245)"><ellipse class="az" cx="9.987" cy="5.546" rx="9.987" ry="5.546" transform="translate(0 0)"/><rect class="az" width="19.973" height="6.656" transform="translate(0 5.177)"/></g><path class="ba" d="M1.421,0V49.8" transform="translate(53.32 90.223)"/><path class="bb" d="M0,24.034S0,13.68,3.7,8.5s2.959,0,2.959,0S11.836-1.85,14.055.369,12.576,8.5,12.576,8.5s6.658,1.479,8.137,5.177-2.219,8.135-5.178,10.353-9.617,6.656-9.617,6.656Z" transform="translate(39.206 70.626)"/><path class="bc" d="M4.438,0,17.014,8.135,12.576,16.27,0,8.135Z" transform="translate(32.549 93.92)"/><path class="x" d="M.561,13.288S-.919,2.2,1.3.716a2.86,2.86,0,0,1,3.7,0s-.74,3.7,0,5.916C6.479,3.674,8.7,3.674,9.438,5.153S6.479,9.59,7.958,11.809s2.959,5.916.74,7.4S.561,13.288.561,13.288Z" transform="translate(103.003 83.59)"/><path class="bc" d="M0,8.135l10.356,9.614,6.658-8.135L5.178,0Z" transform="translate(94.687 94.66)"/></g></g></svg>